<svg width="92" height="92" viewBox="0 0 92 92" fill="none" xmlns="http://www.w3.org/2000/svg">
<rect width="92" height="92" rx="46" fill="#E8FE30"/>
<g clip-path="url(#clip0_19047_2804)">
<path d="M58.3535 33.6465H58.376M34.7695 23.5391H57.2305C63.4329 23.5391 68.4609 28.5671 68.4609 34.7695V57.2305C68.4609 63.4329 63.4329 68.4609 57.2305 68.4609H34.7695C28.5671 68.4609 23.5391 63.4329 23.5391 57.2305V34.7695C23.5391 28.5671 28.5671 23.5391 34.7695 23.5391ZM54.9844 44.585C55.2616 46.4543 54.9423 48.3634 54.0719 50.0408C53.2016 51.7181 51.8245 53.0784 50.1365 53.928C48.4485 54.7776 46.5356 55.0733 44.6698 54.7731C42.8041 54.4729 41.0805 53.592 39.7443 52.2557C38.408 50.9195 37.5271 49.1959 37.2269 47.3302C36.9267 45.4644 37.2224 43.5515 38.072 41.8635C38.9216 40.1756 40.2819 38.7984 41.9592 37.9281C43.6366 37.0577 45.5457 36.7384 47.415 37.0156C49.3218 37.2984 51.0871 38.1869 52.4501 39.5499C53.8131 40.9129 54.7016 42.6782 54.9844 44.585Z" stroke="black" stroke-width="4.49219" stroke-linecap="round" stroke-linejoin="round"/>
</g>
<defs>
<clipPath id="clip0_19047_2804">
<rect width="53.9062" height="53.9062" fill="white" transform="translate(19.0469 19.0469)"/>
</clipPath>
</defs>
</svg>
