<svg width="54" height="54" viewBox="0 0 54 54" fill="none" xmlns="http://www.w3.org/2000/svg">
<path d="M49.2878 38.0852V44.8235C49.2903 45.449 49.1622 46.0682 48.9116 46.6413C48.661 47.2145 48.2934 47.729 47.8325 48.1519C47.3715 48.5748 46.8273 48.8967 46.2348 49.0971C45.6422 49.2975 45.0143 49.372 44.3913 49.3156C37.4797 48.5646 30.8406 46.2029 25.0075 42.4201C19.5805 38.9716 14.9794 34.3705 11.5309 28.9436C7.73498 23.084 5.37268 16.4126 4.63542 9.46994C4.57929 8.84883 4.65311 8.22282 4.85217 7.6318C5.05123 7.04077 5.37117 6.49766 5.79163 6.03706C6.21209 5.57646 6.72385 5.20845 7.29432 4.95647C7.8648 4.70448 8.4815 4.57405 9.10515 4.57346H15.8434C16.9335 4.56273 17.9902 4.94873 18.8167 5.65952C19.6432 6.37031 20.1831 7.35737 20.3356 8.43674C20.62 10.5931 21.1475 12.7104 21.9079 14.7483C22.2101 15.5522 22.2755 16.4259 22.0963 17.2659C21.9172 18.1058 21.501 18.8768 20.8971 19.4875L18.0446 22.3401C21.242 27.9633 25.898 32.6192 31.5212 35.8166L34.3737 32.9641C34.9844 32.3602 35.7554 31.944 36.5954 31.7649C37.4353 31.5857 38.309 31.6511 39.113 31.9533C41.1508 32.7138 43.2681 33.2412 45.4245 33.5256C46.5156 33.6795 47.512 34.2291 48.2243 35.0698C48.9366 35.9105 49.3151 36.9836 49.2878 38.0852Z" fill="black"/>
</svg>
