<svg width="54" height="54" viewBox="0 0 54 54" fill="none" xmlns="http://www.w3.org/2000/svg">
<g clip-path="url(#clip0_19047_2827)">
<path d="M49.4141 26.9531C49.4141 39.358 39.358 49.4141 26.9531 49.4141M49.4141 26.9531C49.4141 14.5483 39.358 4.49219 26.9531 4.49219M49.4141 26.9531H4.49219M26.9531 49.4141C14.5483 49.4141 4.49219 39.358 4.49219 26.9531M26.9531 49.4141C32.5712 43.2635 35.764 35.2816 35.9375 26.9531C35.764 18.6247 32.5712 10.6428 26.9531 4.49219M26.9531 49.4141C21.335 43.2635 18.1423 35.2816 17.9688 26.9531C18.1423 18.6247 21.335 10.6428 26.9531 4.49219M4.49219 26.9531C4.49219 14.5483 14.5483 4.49219 26.9531 4.49219" stroke="black" stroke-width="4.49219" stroke-linecap="round" stroke-linejoin="round"/>
</g>
<defs>
<clipPath id="clip0_19047_2827">
<rect width="53.9062" height="53.9062" fill="white"/>
</clipPath>
</defs>
</svg>
