<svg width="390" height="326" viewBox="0 0 390 326" fill="none" xmlns="http://www.w3.org/2000/svg">
<g clip-path="url(#clip0_2115_3303)">
<rect width="390" height="326" fill="black"/>
<g clip-path="url(#clip1_2115_3303)">
<rect width="390" height="326.923" transform="translate(0 -0.460938)" fill="black"/>
<mask id="mask0_2115_3303" style="mask-type:alpha" maskUnits="userSpaceOnUse" x="195" y="144" width="179" height="153">
<path d="M210.519 225.877C213.094 221.989 213.814 217.585 213.643 212.815C213.493 208.622 212.655 204.142 211.782 199.48C211.663 198.841 211.542 198.198 211.423 197.551C209.444 186.834 207.752 175.236 214.008 163.91C218.019 156.65 223.392 152.932 229.571 151.294C235.753 149.655 242.743 150.096 249.989 151.16C253.059 151.611 256.173 152.173 259.291 152.736C259.852 152.837 260.414 152.939 260.976 153.039C264.654 153.699 268.325 154.332 271.92 154.755C279.109 155.601 285.994 155.607 292.012 153.305C306.576 147.735 317.213 144.979 324.76 144.965C328.532 144.959 331.529 145.638 333.857 146.991C336.184 148.343 337.847 150.37 338.949 153.068C339.775 155.093 339.743 157.512 339.284 160.123C338.833 162.687 337.971 165.431 337.114 168.162L337.067 168.313C336.194 171.093 335.334 173.856 334.927 176.392C334.519 178.929 334.563 181.246 335.507 183.131C337.05 186.215 340.419 188.294 344.524 190.092C346.564 190.986 348.788 191.811 351.065 192.656L351.111 192.673C353.405 193.524 355.751 194.396 358.016 195.378C362.549 197.342 366.755 199.746 369.573 203.306C372.389 206.864 373.823 211.581 372.802 218.18C371.891 224.07 369.587 228.333 366.371 231.665C363.154 234.998 359.023 237.401 354.455 239.567C352.301 240.588 350.052 241.557 347.756 242.545L347.337 242.725C344.896 243.776 342.406 244.855 339.927 246.048C334.971 248.433 330.061 251.276 325.68 255.27C301.706 277.129 272.561 289.776 248.239 294.611C236.078 297.029 225.125 297.493 216.629 296.179C208.131 294.865 202.103 291.776 199.772 287.099C194.11 275.738 192.366 253.286 210.519 225.877Z" fill="#F4D150" stroke="black" stroke-width="0.0896557"/>
</mask>
<g mask="url(#mask0_2115_3303)">
<rect x="156.102" y="99.5254" width="237.498" height="230.953" transform="rotate(-5.89095 156.102 99.5254)" fill="#4F1AE7"/>
<path d="M260.82 279.029C264.978 272.029 267.272 255.685 267.149 249.284L288.835 237.586L301.628 275.427L260.82 279.029Z" fill="#FC909F" stroke="black" stroke-width="1.32152"/>
<mask id="mask1_2115_3303" style="mask-type:alpha" maskUnits="userSpaceOnUse" x="260" y="237" width="42" height="43">
<path d="M260.82 279.029C264.978 272.029 267.272 255.685 267.149 249.284L288.835 237.586L301.628 275.427L260.82 279.029Z" fill="#FFEDEF"/>
</mask>
<g mask="url(#mask1_2115_3303)">
<ellipse cx="19.4924" cy="17.8405" rx="19.4924" ry="17.8405" transform="matrix(-0.996127 0.0879236 0.0879236 0.996127 284.629 219.879)" fill="black"/>
</g>
<g clip-path="url(#clip2_2115_3303)">
<path d="M260.095 276.271C264.254 269.271 266.838 256.219 266.715 249.817L288.402 238.119L300.904 272.669L260.095 276.271Z" fill="#F9C9B6" stroke="black" stroke-width="1.32152"/>
<mask id="mask2_2115_3303" style="mask-type:alpha" maskUnits="userSpaceOnUse" x="260" y="238" width="42" height="42">
<path d="M260.386 279.562C264.544 272.562 266.838 256.219 266.715 249.817L288.402 238.119L301.194 275.96L260.386 279.562Z" fill="#F9C9B6"/>
</mask>
<g mask="url(#mask2_2115_3303)">
<g style="mix-blend-mode:multiply">
<ellipse cx="19.4924" cy="17.8405" rx="19.4924" ry="17.8405" transform="matrix(-0.996127 0.0879236 0.0879236 0.996127 284.637 219.879)" fill="black"/>
</g>
</g>
<mask id="path-9-inside-1_2115_3303" fill="white">
<path fill-rule="evenodd" clip-rule="evenodd" d="M245.311 222.023L245.306 222.022L245.377 221.544L248.798 198.46C248.803 198.426 248.808 198.393 248.813 198.36C248.818 198.326 248.823 198.293 248.828 198.259L248.838 198.189L248.838 198.189C250.997 184.253 264.006 174.653 277.977 176.723C291.949 178.794 301.614 191.754 299.638 205.717L299.639 205.718L296.186 229.02C296.183 229.037 296.181 229.054 296.178 229.072C296.175 229.089 296.173 229.107 296.17 229.124L296.107 229.55L296.103 229.55C293.802 243.319 280.882 252.763 267.013 250.708C253.145 248.653 243.52 235.868 245.311 222.023Z"/>
</mask>
<path fill-rule="evenodd" clip-rule="evenodd" d="M245.311 222.023L245.306 222.022L245.377 221.544L248.798 198.46C248.803 198.426 248.808 198.393 248.813 198.36C248.818 198.326 248.823 198.293 248.828 198.259L248.838 198.189L248.838 198.189C250.997 184.253 264.006 174.653 277.977 176.723C291.949 178.794 301.614 191.754 299.638 205.717L299.639 205.718L296.186 229.02C296.183 229.037 296.181 229.054 296.178 229.072C296.175 229.089 296.173 229.107 296.17 229.124L296.107 229.55L296.103 229.55C293.802 243.319 280.882 252.763 267.013 250.708C253.145 248.653 243.52 235.868 245.311 222.023Z" fill="#F9C9B6"/>
<path d="M245.306 222.022L245.112 223.329L243.805 223.136L243.999 221.828L245.306 222.022ZM245.311 222.023L245.504 220.715L246.788 220.906L246.621 222.192L245.311 222.023ZM245.377 221.544L246.684 221.737L246.684 221.737L245.377 221.544ZM248.798 198.46L250.106 198.648L250.105 198.653L248.798 198.46ZM248.813 198.36L247.505 198.166L247.505 198.166L248.813 198.36ZM248.828 198.259L250.135 198.453L250.134 198.458L248.828 198.259ZM248.838 198.189L247.531 197.996L247.724 196.689L249.031 196.882L248.838 198.189ZM248.838 198.189L250.144 198.392L249.943 199.689L248.645 199.497L248.838 198.189ZM277.977 176.723L278.171 175.416L277.977 176.723ZM299.638 205.717L299.443 207.025L298.146 206.831L298.33 205.532L299.638 205.717ZM299.639 205.718L299.834 204.411L301.14 204.605L300.946 205.911L299.639 205.718ZM296.186 229.02L294.878 228.828L294.878 228.826L296.186 229.02ZM296.17 229.124L294.863 228.931L294.863 228.928L296.17 229.124ZM296.107 229.55L297.414 229.744L297.221 231.051L295.914 230.858L296.107 229.55ZM296.103 229.55L294.799 229.332L295.013 228.053L296.296 228.242L296.103 229.55ZM267.013 250.708L266.82 252.015L266.82 252.015L267.013 250.708ZM245.5 220.715L245.504 220.715L245.117 223.33L245.112 223.329L245.5 220.715ZM246.684 221.737L246.613 222.216L243.999 221.828L244.07 221.35L246.684 221.737ZM250.105 198.653L246.684 221.737L244.07 221.35L247.491 198.266L250.105 198.653ZM247.49 198.271C247.495 198.236 247.5 198.201 247.505 198.166L250.12 198.553C250.115 198.585 250.11 198.617 250.106 198.648L247.49 198.271ZM247.505 198.166C247.511 198.131 247.516 198.096 247.521 198.061L250.134 198.458C250.129 198.49 250.124 198.522 250.12 198.553L247.505 198.166ZM250.145 198.383L250.135 198.453L247.52 198.066L247.531 197.996L250.145 198.383ZM248.645 199.497L248.645 199.497L249.031 196.882L249.032 196.882L248.645 199.497ZM247.532 197.987C249.802 183.333 263.48 173.239 278.171 175.416L277.783 178.031C264.531 176.067 252.192 185.173 250.144 198.392L247.532 197.987ZM278.171 175.416C292.861 177.593 303.024 191.22 300.947 205.903L298.33 205.532C300.204 192.288 291.036 179.994 277.783 178.031L278.171 175.416ZM299.444 207.025L299.443 207.025L299.833 204.41L299.834 204.411L299.444 207.025ZM294.878 228.826L298.332 205.524L300.946 205.911L297.493 229.213L294.878 228.826ZM297.493 229.211C297.491 229.229 297.488 229.247 297.485 229.266L294.871 228.878C294.873 228.862 294.876 228.845 294.878 228.828L297.493 229.211ZM297.485 229.266C297.483 229.284 297.48 229.302 297.477 229.321L294.863 228.928C294.866 228.911 294.868 228.895 294.871 228.878L297.485 229.266ZM294.8 229.357L294.863 228.931L297.477 229.318L297.414 229.744L294.8 229.357ZM296.296 228.242L296.3 228.243L295.914 230.858L295.909 230.857L296.296 228.242ZM297.406 229.767C294.986 244.246 281.402 254.176 266.82 252.015L267.207 249.401C280.362 251.35 292.617 242.392 294.799 229.332L297.406 229.767ZM266.82 252.015C252.237 249.854 242.117 236.411 244 221.853L246.621 222.192C244.922 235.324 254.053 247.452 267.207 249.401L266.82 252.015Z" fill="black" mask="url(#path-9-inside-1_2115_3303)"/>
</g>
<path d="M277.195 227.664C276.866 233.331 267.719 236.792 258.596 231.13" stroke="black" stroke-width="1.32152"/>
<path d="M261.631 199.76C259.688 199.047 255.23 198.633 252.934 202.683" stroke="black" stroke-width="1.32152" stroke-linecap="round"/>
<path d="M287.186 205.899C286.332 204.013 283.502 200.544 279.004 201.746" stroke="black" stroke-width="1.32152" stroke-linecap="round"/>
<path d="M271.118 171.152L271.093 171.157L271.068 171.16C262.314 172.193 255.799 176.288 251.347 180.977C247.082 185.469 244.74 190.473 244.125 193.797C245.529 194.442 247.875 194.896 250.842 195.176C254.078 195.482 257.939 195.574 261.867 195.535C269.723 195.457 277.791 194.861 281.547 194.447L283.542 194.227L282.068 195.589C281.302 196.297 280.247 196.835 279.117 197.248C277.979 197.664 276.72 197.969 275.508 198.186C274.259 198.41 273.035 198.544 272.016 198.608C275.737 200.987 280.354 202.661 284.862 203.806C290.068 205.128 295.071 205.73 298.258 205.914L298.974 205.955L298.874 206.666C298.192 211.511 296.899 219.991 296.032 225.678C295.648 228.201 295.347 230.175 295.22 231.037C294.996 232.568 294.061 234.803 292.952 236.885C291.93 238.805 290.707 240.695 289.639 241.886L293.142 252.128L302.871 251.269C299.758 247.328 298.752 242.544 298.859 237.368C298.974 231.764 300.396 225.622 301.923 219.463C302.073 218.857 302.224 218.251 302.375 217.644C303.768 212.063 305.157 206.496 305.71 201.23C306.323 195.397 305.9 190.026 303.382 185.493C299.305 178.153 292.882 174.25 286.632 172.337C280.369 170.421 274.327 170.521 271.118 171.152Z" fill="white" stroke="black" stroke-width="1.32152"/>
<ellipse cx="2.97342" cy="3.3038" rx="2.97342" ry="3.3038" transform="matrix(-0.999543 -0.0302296 -0.0302296 0.999543 282.352 206.904)" fill="black"/>
<ellipse cx="2.97342" cy="3.3038" rx="2.97342" ry="3.3038" transform="matrix(-0.999769 -0.0214923 -0.0214923 0.999769 260.961 205.445)" fill="black"/>
<path d="M268.191 211.842C267.953 216.462 265.456 219.972 265.456 219.972C265.456 219.972 266.508 222.011 269.842 221.521" stroke="black" stroke-width="1.32152"/>
<path d="M292.048 213.669L292.015 213.301L292.312 213.08C293.474 212.218 294.932 211.673 296.476 211.537C298.332 211.373 300.121 211.795 301.462 212.853C302.818 213.923 303.646 215.59 303.656 217.757C303.667 219.87 303.099 221.475 302.022 222.604C302.147 222.924 302.206 223.276 302.195 223.653C302.162 224.74 301.686 225.563 300.888 226.115C300.127 226.641 299.116 226.892 298.024 226.988C296.221 227.148 294.554 226.317 293.236 225.126L293.043 224.952L293.021 224.694L292.048 213.669Z" stroke="black" stroke-width="1.32152"/>
<path fill-rule="evenodd" clip-rule="evenodd" d="M290.54 219.024C290.497 218.81 290.466 218.592 290.446 218.371C290.149 215.008 293.081 212.5 296.534 212.195C299.988 211.89 302.976 213.782 302.995 217.761C303.006 219.974 302.348 221.49 301.205 222.468C301.429 222.788 301.548 223.176 301.534 223.633C301.481 225.39 300.052 226.146 297.966 226.331C294.313 226.653 291.014 222.288 290.54 219.024Z" fill="#F9C9B6"/>
<path d="M295.326 215.122C296.589 214.402 299.457 213.828 300.824 217.29" stroke="black" stroke-width="1.32152"/>
<path d="M298.797 214.98C298.137 215.647 296.941 217.632 297.437 220.241" stroke="black" stroke-width="1.32152"/>
<path d="M226.588 303.394L335.543 293.777C333.434 284.973 327.286 277.31 319.993 271.576C312.496 265.683 303.879 261.898 297.406 261.011C292.03 260.274 285.838 260.217 278.635 260.853C275.523 261.127 273.143 261.816 270.9 262.645C270.07 262.952 269.237 263.288 268.385 263.631C266.975 264.199 265.513 264.789 263.919 265.306L263.874 265.32L263.828 265.328C248.432 267.976 231.653 280.371 226.588 303.394Z" fill="#F4D150" stroke="black" stroke-width="1.32152"/>
<path d="M301.257 261.39L297.676 255.206C297.59 255.059 297.405 255.001 297.25 255.072C285.158 260.592 273.776 261.283 262.994 259.283C262.859 259.257 262.721 259.319 262.65 259.437L258.618 266.112C258.507 266.295 258.593 266.533 258.799 266.593C270.242 269.96 290.931 267.39 301.136 261.839C301.298 261.751 301.35 261.549 301.257 261.39Z" fill="white" stroke="black" stroke-width="1.32152"/>
</g>
<ellipse cx="332.213" cy="293.77" rx="34.1346" ry="31.7308" fill="#D9D9D9"/>
<path d="M322.793 83.6625C226.541 193.655 61.6923 171.174 8.1594 135.116C-45.3735 99.0589 -80.9501 18.7702 -80.9501 18.7702L-34.7961 -2.38384L346.74 -92.1913C359.566 -61.3202 372.731 17.0699 322.793 83.6625Z" fill="#FFFF00"/>
<path d="M29.8086 315.329L121.23 240.887L285.578 345.732L55.1232 378.387L29.8086 315.329Z" fill="#FFFF00"/>
<path d="M64.5352 185.692C29.6719 99.8524 -108.512 155.126 -108.512 222.997L-111.539 266.942L98.9102 258.348L64.5352 185.692Z" fill="#D9D9D9"/>
<ellipse cx="360.109" cy="110.861" rx="44.7266" ry="42.0898" fill="#FFFF00"/>
<path d="M93.624 242.977C76.9164 178.86 158.708 138.13 207.644 188.394L93.624 242.977Z" fill="#FFFF00"/>
</g>
<path d="M41.017 42H31.407V40.977C31.965 40.946 33.236 40.853 33.639 40.698C34.383 40.419 34.6 39.861 34.6 39.179V31.615H23.905V39.024C23.905 39.706 24.153 40.233 24.866 40.543C25.238 40.698 26.54 40.946 27.098 40.977V42H17.488V40.977C18.046 40.946 19.255 40.853 19.658 40.698C20.402 40.419 20.619 39.861 20.619 39.179V23.896C20.619 23.214 20.402 22.687 19.658 22.377C19.131 22.16 18.046 21.881 17.488 21.85V20.827H27.098V21.85C26.54 21.881 25.424 22.036 24.866 22.222C24.091 22.47 23.905 23.059 23.905 23.741V30.313H34.6V23.896C34.6 23.214 34.352 22.687 33.639 22.377C33.112 22.16 31.965 21.881 31.407 21.85V20.827H41.017V21.85C40.459 21.881 39.405 22.036 38.847 22.222C38.072 22.47 37.886 23.059 37.886 23.741V39.024C37.886 39.706 38.134 40.202 38.847 40.543C39.219 40.729 40.459 40.946 41.017 40.977V42ZM47.3628 21.602C47.3628 22.687 46.5258 23.617 45.4098 23.617C44.3868 23.617 43.5188 22.749 43.5188 21.726C43.5188 20.672 44.3868 19.773 45.4098 19.773C46.5568 19.773 47.3628 20.61 47.3628 21.602ZM49.2848 42H42.0618V41.039C42.6198 41.008 42.9918 40.977 43.4258 40.853C44.0148 40.667 44.2628 40.171 44.2628 39.489V30.809C44.2008 30.158 43.9218 29.6 43.4258 29.259C43.0538 29.011 42.1548 28.794 41.5968 28.763V27.833L46.8668 27.492L47.0838 27.709V39.303C47.0838 39.985 47.3628 40.481 47.9208 40.698C48.3858 40.884 48.7268 41.008 49.2848 41.039V42ZM54.8653 41.442C54.8653 44.294 51.9823 46.526 50.5253 47.332L49.8743 46.309C51.6103 45.286 53.1293 44.046 53.3153 41.938H52.4783C50.8663 41.938 50.3393 40.946 50.3393 39.985C50.3393 39.117 51.0523 38.156 52.2613 38.156C54.0903 38.156 54.8653 39.489 54.8653 41.442ZM72.6665 42H62.9325V40.977C63.4905 40.946 64.7925 40.853 65.1955 40.698C65.9395 40.419 66.1565 39.892 66.1565 39.21V23.865C66.1565 23.183 65.9705 22.687 65.1955 22.377C64.6375 22.16 63.4905 21.881 62.9325 21.85V20.827H72.6665V21.85C72.1085 21.881 70.9615 22.036 70.4035 22.222C69.6285 22.47 69.4425 23.028 69.4425 23.71V39.055C69.4425 39.737 69.6905 40.233 70.4035 40.543C70.7755 40.698 72.1085 40.946 72.6665 40.977V42ZM78.2838 22.253C78.2838 24.919 75.6798 26.562 74.3158 27.337L73.8508 26.438C75.4938 25.477 76.6718 24.702 76.8578 22.718H76.0828C74.5638 22.718 74.0678 21.788 74.0678 20.889C74.0678 20.052 74.7498 19.153 75.8658 19.153C77.6018 19.153 78.2838 20.393 78.2838 22.253ZM85.0741 41.039V42H77.8201V41.039C78.3781 41.008 78.7501 40.977 79.1841 40.853C79.7731 40.667 80.0211 40.171 80.0211 39.489V30.747C79.9591 30.096 79.6801 29.569 79.1841 29.228C78.8121 28.98 78.1611 28.794 77.6031 28.763V27.833L82.5941 27.492L82.8111 27.709V29.848H82.9041C84.1131 28.67 85.2291 27.275 87.8951 27.275C89.8481 27.275 91.2741 28.453 91.8941 29.941C93.1651 28.732 94.3741 27.275 97.0401 27.275C99.9231 27.275 101.132 29.383 101.132 32.328V39.334C101.132 40.016 101.38 40.481 101.938 40.729C102.372 40.915 102.837 41.008 103.395 41.039V42H96.1101V41.039C96.6681 41.008 97.0091 40.977 97.4431 40.853C98.0321 40.667 98.2801 40.171 98.2801 39.489V32.297C98.2801 30.158 97.1021 29.011 95.7691 29.011C93.5061 29.011 92.3591 30.53 91.9871 31.181V39.334C91.9871 40.016 92.2351 40.481 92.7931 40.729C93.2271 40.915 93.5991 41.008 94.1571 41.039V42H87.0271V41.039C87.5851 41.008 87.8641 40.977 88.2981 40.853C88.8871 40.667 89.1351 40.171 89.1351 39.489V32.297C89.1351 30.158 87.9571 29.011 86.6241 29.011C84.3611 29.011 83.2141 30.561 82.8421 31.212V39.303C82.8421 39.985 83.1211 40.45 83.6791 40.698C84.1441 40.915 84.5161 41.008 85.0741 41.039ZM127.486 26.159H126.339C125.998 24.795 124.355 22.284 123.022 22.098C122.278 22.005 121.441 21.974 120.449 21.974H116.884V30.53H119.426C121.007 30.53 121.782 29.941 122.185 29.569C122.619 29.166 123.022 28.019 123.146 26.872H124.293V35.583H123.146C123.084 34.684 122.619 33.103 122.185 32.669C121.782 32.266 120.883 31.708 119.426 31.708H116.884V39.024C116.884 39.706 117.132 40.233 117.845 40.543C118.217 40.698 119.643 40.946 120.201 40.977V42H110.467V40.977C111.025 40.946 112.234 40.853 112.637 40.698C113.381 40.419 113.598 39.861 113.598 39.179V23.896C113.598 23.214 113.412 22.687 112.637 22.377C112.048 22.129 111.025 21.881 110.467 21.85V20.827H127.486V26.159ZM134.81 42H127.587V41.039C128.145 41.008 128.517 40.977 128.951 40.853C129.54 40.667 129.788 40.171 129.788 39.489V22.439C129.788 21.726 129.447 21.013 128.951 20.672C128.579 20.424 127.339 20.176 126.781 20.145V19.215L132.392 18.874L132.609 19.091V39.303C132.609 39.985 132.888 40.45 133.446 40.698C133.911 40.915 134.252 41.008 134.81 41.039V42ZM149.665 34.684C149.665 38.9 147.061 42.434 142.38 42.434C138.66 42.434 135.374 39.551 135.374 34.901C135.374 30.406 138.257 27.275 142.597 27.275C146.937 27.275 149.665 30.468 149.665 34.684ZM146.534 34.715C146.534 31.553 145.573 28.329 142.566 28.329C139.342 28.329 138.505 31.77 138.505 34.653C138.505 38.249 139.652 41.38 142.566 41.38C145.325 41.38 146.534 38.342 146.534 34.715ZM161.827 29.383C161.827 30.53 161.145 31.491 160.091 31.491C159.099 31.491 158.51 31.057 158.51 30.003C158.51 29.724 158.696 29.166 158.727 29.011C157.146 29.011 155.937 30.468 155.565 31.15V39.334C155.565 40.016 155.844 40.481 156.402 40.698C156.929 40.915 157.828 41.008 158.417 41.039V42H150.543V41.039C151.101 41.008 151.473 40.977 151.907 40.853C152.496 40.667 152.744 40.171 152.744 39.489V30.809C152.682 30.158 152.403 29.507 151.907 29.166C151.535 28.918 150.946 28.794 150.388 28.763V27.833L155.348 27.492L155.565 27.709V29.817H155.627C156.96 28.112 158.448 27.337 159.75 27.337C160.897 27.337 161.827 28.205 161.827 29.383ZM174.431 38.621C173.315 40.822 171.145 42.372 168.479 42.372C163.705 42.372 161.473 38.9 161.473 34.715C161.473 30.902 163.984 27.275 168.169 27.275C172.509 27.275 174.09 30.127 174.09 33.351V34.157H164.511C164.511 38.156 165.906 40.791 169.347 40.791C171.455 40.791 172.416 39.799 173.47 38.032L174.431 38.621ZM171.114 33.01C171.114 30.778 170.556 28.329 168.138 28.329C166.154 28.329 164.604 30.158 164.511 33.072L171.114 33.01ZM179.784 40.233C179.784 41.38 178.854 42.279 177.707 42.279C176.56 42.279 175.63 41.38 175.63 40.233C175.63 39.086 176.56 38.156 177.707 38.156C178.854 38.156 179.784 39.086 179.784 40.233ZM197.709 42H187.975V40.977C188.533 40.946 189.835 40.853 190.238 40.698C190.982 40.419 191.199 39.892 191.199 39.21V23.865C191.199 23.183 191.013 22.687 190.238 22.377C189.68 22.16 188.533 21.881 187.975 21.85V20.827H197.709V21.85C197.151 21.881 196.004 22.036 195.446 22.222C194.671 22.47 194.485 23.028 194.485 23.71V39.055C194.485 39.737 194.733 40.233 195.446 40.543C195.818 40.698 197.151 40.946 197.709 40.977V42ZM212.448 41.039V42H205.194V41.039C205.752 41.008 206.124 40.977 206.558 40.853C207.147 40.667 207.395 40.171 207.395 39.489V30.747C207.333 30.096 207.054 29.569 206.558 29.228C206.186 28.98 205.535 28.794 204.977 28.763V27.833L209.968 27.492L210.185 27.709V29.848H210.278C211.487 28.67 212.603 27.275 215.269 27.275C217.222 27.275 218.648 28.453 219.268 29.941C220.539 28.732 221.748 27.275 224.414 27.275C227.297 27.275 228.506 29.383 228.506 32.328V39.334C228.506 40.016 228.754 40.481 229.312 40.729C229.746 40.915 230.211 41.008 230.769 41.039V42H223.484V41.039C224.042 41.008 224.383 40.977 224.817 40.853C225.406 40.667 225.654 40.171 225.654 39.489V32.297C225.654 30.158 224.476 29.011 223.143 29.011C220.88 29.011 219.733 30.53 219.361 31.181V39.334C219.361 40.016 219.609 40.481 220.167 40.729C220.601 40.915 220.973 41.008 221.531 41.039V42H214.401V41.039C214.959 41.008 215.238 40.977 215.672 40.853C216.261 40.667 216.509 40.171 216.509 39.489V32.297C216.509 30.158 215.331 29.011 213.998 29.011C211.735 29.011 210.588 30.561 210.216 31.212V39.303C210.216 39.985 210.495 40.45 211.053 40.698C211.518 40.915 211.89 41.008 212.448 41.039ZM239.725 34.033C236.625 34.963 234.362 35.924 234.362 38.435C234.362 40.047 235.168 40.76 236.501 40.76C238.113 40.76 238.857 40.047 239.601 39.179L239.725 34.033ZM245.863 38.311C245.708 41.225 244.437 42.31 242.453 42.31C240.996 42.31 240.221 41.659 239.725 40.233H239.632C238.516 41.535 236.811 42.372 234.951 42.372C232.812 42.372 231.355 41.008 231.355 38.962C231.355 36.296 232.843 35.366 234.393 34.777C236.16 34.095 238.392 33.475 239.694 32.793V31.398C239.694 30.84 239.57 28.298 236.997 28.298C236.005 28.298 235.261 28.732 234.982 29.042C234.982 29.507 235.261 30.282 235.261 30.964C235.261 31.646 234.579 32.328 233.463 32.328C232.44 32.328 232.068 31.491 232.068 30.654C232.068 28.763 234.827 27.275 237.183 27.275C240.252 27.275 242.546 27.833 242.546 31.987C242.546 34.777 242.391 38.094 242.391 39.117C242.391 39.489 242.732 40.636 243.755 40.636C244.561 40.636 244.84 39.458 244.871 38.311H245.863ZM261.333 42H256.404C255.691 39.613 253.49 35.242 251.475 35.242C250.669 35.242 250.39 35.49 250.142 35.707V39.334C250.142 40.016 250.421 40.481 250.979 40.698C251.444 40.884 251.878 41.008 252.436 41.039V42H245.12V41.039C245.678 41.008 246.05 40.977 246.484 40.853C247.073 40.667 247.321 40.171 247.321 39.489V22.377C247.321 21.633 246.98 20.92 246.484 20.579C246.05 20.269 244.965 20.176 244.407 20.145V19.215L249.925 18.874L250.142 19.091V34.746C251.537 33.444 253.552 31.522 254.854 30.127C255.009 29.972 255.257 29.631 255.257 29.445C255.257 28.918 254.141 28.701 253.335 28.608V27.678H259.845V28.577C258.202 29.042 256.807 29.817 256.094 30.437C255.257 31.15 254.265 32.018 253.242 33.041C256.28 34.467 257.396 37.195 258.791 39.861C259.039 40.326 259.597 40.636 260.124 40.853C260.651 41.07 261.209 41.07 261.333 41.07V42ZM273.616 38.621C272.5 40.822 270.33 42.372 267.664 42.372C262.89 42.372 260.658 38.9 260.658 34.715C260.658 30.902 263.169 27.275 267.354 27.275C271.694 27.275 273.275 30.127 273.275 33.351V34.157H263.696C263.696 38.156 265.091 40.791 268.532 40.791C270.64 40.791 271.601 39.799 272.655 38.032L273.616 38.621ZM270.299 33.01C270.299 30.778 269.741 28.329 267.323 28.329C265.339 28.329 263.789 30.158 263.696 33.072L270.299 33.01ZM27.904 76.272V67.84C27.563 66.817 26.54 65.36 24.401 65.36C22.045 65.36 20.216 67.84 20.216 71.994C20.216 75.001 21.518 77.853 24.742 77.853C26.23 77.853 27.098 77.14 27.904 76.272ZM33.36 78.721L28.152 79.062L27.935 78.845V77.512L27.811 77.481C27.129 78.194 25.641 79.403 23.688 79.403C20.061 79.403 17.054 76.396 17.054 71.653C17.054 67.313 20.495 64.275 24.153 64.275C26.106 64.275 27.532 64.988 27.904 65.174V59.532C27.842 58.881 27.594 58.075 27.098 57.734C26.509 57.331 25.269 57.176 24.37 57.114V56.215L30.508 55.874L30.725 56.091V75.962C30.725 76.706 31.035 77.14 31.531 77.481C31.903 77.729 32.802 77.76 33.36 77.791V78.721ZM46.482 75.621C45.366 77.822 43.196 79.372 40.53 79.372C35.756 79.372 33.524 75.9 33.524 71.715C33.524 67.902 36.035 64.275 40.22 64.275C44.56 64.275 46.141 67.127 46.141 70.351V71.157H36.562C36.562 75.156 37.957 77.791 41.398 77.791C43.506 77.791 44.467 76.799 45.521 75.032L46.482 75.621ZM43.165 70.01C43.165 67.778 42.607 65.329 40.189 65.329C38.205 65.329 36.655 67.158 36.562 70.072L43.165 70.01ZM57.415 74.908C57.415 77.729 55.059 79.434 52.145 79.434C50.626 79.434 48.983 78.721 48.456 78.163L48.146 79.155H47.092L46.937 74.133H47.929C48.27 75.683 49.789 78.349 52.269 78.349C54.439 78.349 55.183 77.419 55.183 75.869C55.183 74.195 54.005 73.606 51.587 72.893C49.603 72.304 47.309 71.157 47.309 68.429C47.309 66.073 49.138 64.275 52.021 64.275C53.23 64.275 54.47 64.554 55.245 65.112L55.493 64.244H56.485L56.702 68.739H55.71C55.4 66.941 54.191 65.36 51.99 65.36C50.378 65.36 49.541 66.197 49.541 67.375C49.541 69.111 50.626 69.483 53.137 70.32C55.679 71.157 57.415 72.335 57.415 74.908ZM63.7129 58.602C63.7129 59.687 62.8759 60.617 61.7599 60.617C60.7369 60.617 59.8689 59.749 59.8689 58.726C59.8689 57.672 60.7369 56.773 61.7599 56.773C62.9069 56.773 63.7129 57.61 63.7129 58.602ZM65.6349 79H58.4119V78.039C58.9699 78.008 59.3419 77.977 59.7759 77.853C60.3649 77.667 60.6129 77.171 60.6129 76.489V67.809C60.5509 67.158 60.2719 66.6 59.7759 66.259C59.4039 66.011 58.5049 65.794 57.9469 65.763V64.833L63.2169 64.492L63.4339 64.709V76.303C63.4339 76.985 63.7129 77.481 64.2709 77.698C64.7359 77.884 65.0769 78.008 65.6349 78.039V79ZM74.7494 68.987C74.7494 67.034 74.0364 65.298 72.0834 65.298C70.0994 65.298 69.5414 66.941 69.5414 68.894C69.5414 71.002 70.5644 72.521 72.1144 72.521C73.9434 72.521 74.7494 70.878 74.7494 68.987ZM81.0114 65.794C81.0114 66.693 80.5464 67.313 79.7094 67.313C78.6864 67.313 78.3764 66.724 78.3764 65.453C77.3534 65.453 76.9194 65.67 76.4544 66.011V66.104C77.1984 66.91 77.6324 68.119 77.6324 69.049C77.6324 71.777 74.9354 73.544 72.3934 73.544H70.5954C70.0994 73.73 69.5104 74.133 69.5104 74.877C69.5104 76.427 71.3084 76.365 72.8274 76.427C73.7264 76.458 75.6484 76.582 76.2994 76.613C78.1284 76.706 80.2674 78.194 80.2674 80.86C80.2674 83.743 77.8184 86.006 72.4864 86.006C67.5884 86.006 65.7284 84.518 65.7284 82.131C65.7284 80.364 67.0614 78.845 70.2234 78.752V78.535C69.0144 78.163 67.3714 77.605 67.3714 75.807C67.3714 74.288 68.7664 73.575 69.7894 73.172V72.986C67.8364 72.087 66.6274 70.754 66.6274 68.894C66.6274 66.011 69.1074 64.275 72.1764 64.275C74.3154 64.275 76.0514 65.205 76.3614 65.205C77.5084 64.492 78.2214 64.275 79.5544 64.275C80.2984 64.275 81.0114 64.926 81.0114 65.794ZM77.7874 81.449C77.7874 80.736 77.6634 79.744 76.2064 79.31C75.5244 79.217 74.1914 79.093 71.4014 79.093C69.2004 79.527 68.3634 80.457 68.3634 82.255C68.3634 83.495 69.5724 84.921 73.0134 84.921C76.0204 84.921 77.7874 83.805 77.7874 81.449ZM97.3079 79H89.9919V78.039C90.5499 78.008 91.0149 77.977 91.4489 77.853C92.0379 77.667 92.2859 77.171 92.2859 76.489V69.328C92.2859 67.189 91.0459 66.011 89.7129 66.011C87.4499 66.011 86.1789 67.499 85.8379 68.212V76.334C85.8379 77.016 86.1169 77.45 86.6749 77.698C87.1399 77.915 87.6049 78.008 88.1319 78.039V79H80.8159V78.039C81.3739 78.008 81.7459 77.977 82.1799 77.853C82.7689 77.667 83.0169 77.171 83.0169 76.489V67.809C82.9549 67.158 82.6759 66.507 82.1799 66.166C81.8079 65.918 81.2189 65.794 80.6609 65.763V64.833L85.6209 64.492L85.8379 64.709V66.817H85.8999C87.0779 65.67 88.2559 64.275 90.9219 64.275C93.8049 64.275 95.1379 66.228 95.1379 69.173V76.365C95.1379 77.047 95.3859 77.481 95.9439 77.729C96.3779 77.915 96.7499 78.008 97.3079 78.039V79ZM108.34 74.908C108.34 77.729 105.984 79.434 103.07 79.434C101.551 79.434 99.9078 78.721 99.3808 78.163L99.0708 79.155H98.0168L97.8618 74.133H98.8538C99.1948 75.683 100.714 78.349 103.194 78.349C105.364 78.349 106.108 77.419 106.108 75.869C106.108 74.195 104.93 73.606 102.512 72.893C100.528 72.304 98.2338 71.157 98.2338 68.429C98.2338 66.073 100.063 64.275 102.946 64.275C104.155 64.275 105.395 64.554 106.17 65.112L106.418 64.244H107.41L107.627 68.739H106.635C106.325 66.941 105.116 65.36 102.915 65.36C101.303 65.36 100.466 66.197 100.466 67.375C100.466 69.111 101.551 69.483 104.062 70.32C106.604 71.157 108.34 72.335 108.34 74.908ZM127.696 58.571C127.696 59.16 127.107 60.183 126.022 60.183C125.309 60.183 124.224 59.842 124.224 58.788C124.224 58.323 124.41 57.548 124.41 57.083C124.224 56.897 123.914 56.866 123.666 56.866C121.713 56.866 120.752 58.416 120.597 63.159C120.597 63.624 120.566 64.213 120.566 64.74H124.41V66.104H120.566V76.334C120.566 77.016 120.845 77.481 121.403 77.698C121.868 77.884 122.86 78.008 123.418 78.039V79H115.544V78.039C116.102 78.008 116.474 77.977 116.908 77.853C117.497 77.667 117.745 77.171 117.745 76.489V66.104H114.645V64.74H117.745V64.089C117.745 61.516 118.334 59.346 119.853 57.734C121.124 56.37 122.829 55.843 124.41 55.843C126.735 55.843 127.696 57.238 127.696 58.571ZM138.553 71.684C138.553 75.9 135.949 79.434 131.268 79.434C127.548 79.434 124.262 76.551 124.262 71.901C124.262 67.406 127.145 64.275 131.485 64.275C135.825 64.275 138.553 67.468 138.553 71.684ZM135.422 71.715C135.422 68.553 134.461 65.329 131.454 65.329C128.23 65.329 127.393 68.77 127.393 71.653C127.393 75.249 128.54 78.38 131.454 78.38C134.213 78.38 135.422 75.342 135.422 71.715ZM150.715 66.383C150.715 67.53 150.033 68.491 148.979 68.491C147.987 68.491 147.398 68.057 147.398 67.003C147.398 66.724 147.584 66.166 147.615 66.011C146.034 66.011 144.825 67.468 144.453 68.15V76.334C144.453 77.016 144.732 77.481 145.29 77.698C145.817 77.915 146.716 78.008 147.305 78.039V79H139.431V78.039C139.989 78.008 140.361 77.977 140.795 77.853C141.384 77.667 141.632 77.171 141.632 76.489V67.809C141.57 67.158 141.291 66.507 140.795 66.166C140.423 65.918 139.834 65.794 139.276 65.763V64.833L144.236 64.492L144.453 64.709V66.817H144.515C145.848 65.112 147.336 64.337 148.638 64.337C149.785 64.337 150.715 65.205 150.715 66.383ZM165.024 75.931C164.59 76.985 164.249 77.853 163.815 79.217H162.792C160.591 73.668 159.692 71.436 157.894 67.189C157.553 66.352 156.499 65.732 155.631 65.639V64.678H162.327V65.701C161.614 65.732 160.684 65.856 160.684 66.352C160.684 66.383 160.746 66.631 160.901 67.003C161.521 68.584 162.823 71.87 164.125 75.156H164.249C165.21 72.676 166.14 70.32 167.039 67.84C166.946 67.654 166.853 67.437 166.605 66.972C166.078 66.011 165.427 65.732 164.559 65.639V64.678H170.976V65.67C170.263 65.701 169.364 65.763 169.364 66.29C169.364 66.321 169.426 66.631 169.581 67.003C170.17 68.584 171.503 72.118 172.681 75.187H172.805C174.045 71.963 174.758 70.01 175.626 67.468C175.719 67.189 175.781 66.848 175.781 66.662C175.781 65.918 174.262 65.608 173.797 65.608V64.678H179.377V65.608C178.509 65.701 177.3 66.414 176.897 67.468C175.533 70.878 174.944 72.397 173.549 75.931C173.115 77.016 172.805 77.853 172.371 79.217H171.41C170.046 75.466 168.806 72.273 167.628 69.235C166.729 71.25 165.923 73.668 165.024 75.931ZM191.597 75.621C190.481 77.822 188.311 79.372 185.645 79.372C180.871 79.372 178.639 75.9 178.639 71.715C178.639 67.902 181.15 64.275 185.335 64.275C189.675 64.275 191.256 67.127 191.256 70.351V71.157H181.677C181.677 75.156 183.072 77.791 186.513 77.791C188.621 77.791 189.582 76.799 190.636 75.032L191.597 75.621ZM188.28 70.01C188.28 67.778 187.722 65.329 185.304 65.329C183.32 65.329 181.77 67.158 181.677 70.072L188.28 70.01ZM203.956 71.932C203.956 68.925 202.747 65.887 199.616 65.887C198.128 65.887 197.136 66.476 196.392 67.313V75.714C196.733 76.675 197.725 78.349 199.833 78.349C202.189 78.349 203.956 76.086 203.956 71.932ZM207.118 71.901C207.118 76.241 203.739 79.434 200.081 79.434C198.035 79.434 196.423 78.597 195.493 78.07L194.346 79.806L193.447 79.589C193.54 78.349 193.571 76.086 193.571 73.854V59.346C193.571 58.695 193.23 57.889 192.734 57.579C192.362 57.331 191.246 57.176 190.688 57.145V56.215L196.175 55.874L196.392 56.091V66.166L196.485 66.197C197.198 65.422 198.717 64.275 200.67 64.275C204.235 64.275 207.118 67.251 207.118 71.901ZM218.516 74.908C218.516 77.729 216.16 79.434 213.246 79.434C211.727 79.434 210.084 78.721 209.557 78.163L209.247 79.155H208.193L208.038 74.133H209.03C209.371 75.683 210.89 78.349 213.37 78.349C215.54 78.349 216.284 77.419 216.284 75.869C216.284 74.195 215.106 73.606 212.688 72.893C210.704 72.304 208.41 71.157 208.41 68.429C208.41 66.073 210.239 64.275 213.122 64.275C214.331 64.275 215.571 64.554 216.346 65.112L216.594 64.244H217.586L217.803 68.739H216.811C216.501 66.941 215.292 65.36 213.091 65.36C211.479 65.36 210.642 66.197 210.642 67.375C210.642 69.111 211.727 69.483 214.238 70.32C216.78 71.157 218.516 72.335 218.516 74.908ZM224.814 58.602C224.814 59.687 223.977 60.617 222.861 60.617C221.838 60.617 220.97 59.749 220.97 58.726C220.97 57.672 221.838 56.773 222.861 56.773C224.008 56.773 224.814 57.61 224.814 58.602ZM226.736 79H219.513V78.039C220.071 78.008 220.443 77.977 220.877 77.853C221.466 77.667 221.714 77.171 221.714 76.489V67.809C221.652 67.158 221.373 66.6 220.877 66.259C220.505 66.011 219.606 65.794 219.048 65.763V64.833L224.318 64.492L224.535 64.709V76.303C224.535 76.985 224.814 77.481 225.372 77.698C225.837 77.884 226.178 78.008 226.736 78.039V79ZM236.904 75.156C236.687 77.45 235.416 79.31 232.936 79.31C230.394 79.31 229.154 77.822 229.154 75.063V66.135H226.271V64.74H229.216V60.245H231.913V64.74H236.098V66.135H231.944V74.66C231.944 76.427 232.44 77.512 234.145 77.512C235.478 77.512 235.726 76.334 235.85 75.156H236.904ZM249.758 75.621C248.642 77.822 246.472 79.372 243.806 79.372C239.032 79.372 236.8 75.9 236.8 71.715C236.8 67.902 239.311 64.275 243.496 64.275C247.836 64.275 249.417 67.127 249.417 70.351V71.157H239.838C239.838 75.156 241.233 77.791 244.674 77.791C246.782 77.791 247.743 76.799 248.797 75.032L249.758 75.621ZM246.441 70.01C246.441 67.778 245.883 65.329 243.465 65.329C241.481 65.329 239.931 67.158 239.838 70.072L246.441 70.01ZM260.691 74.908C260.691 77.729 258.335 79.434 255.421 79.434C253.902 79.434 252.259 78.721 251.732 78.163L251.422 79.155H250.368L250.213 74.133H251.205C251.546 75.683 253.065 78.349 255.545 78.349C257.715 78.349 258.459 77.419 258.459 75.869C258.459 74.195 257.281 73.606 254.863 72.893C252.879 72.304 250.585 71.157 250.585 68.429C250.585 66.073 252.414 64.275 255.297 64.275C256.506 64.275 257.746 64.554 258.521 65.112L258.769 64.244H259.761L259.978 68.739H258.986C258.676 66.941 257.467 65.36 255.266 65.36C253.654 65.36 252.817 66.197 252.817 67.375C252.817 69.111 253.902 69.483 256.413 70.32C258.955 71.157 260.691 72.335 260.691 74.908ZM276.39 71.033C273.29 71.963 271.027 72.924 271.027 75.435C271.027 77.047 271.833 77.76 273.166 77.76C274.778 77.76 275.522 77.047 276.266 76.179L276.39 71.033ZM282.528 75.311C282.373 78.225 281.102 79.31 279.118 79.31C277.661 79.31 276.886 78.659 276.39 77.233H276.297C275.181 78.535 273.476 79.372 271.616 79.372C269.477 79.372 268.02 78.008 268.02 75.962C268.02 73.296 269.508 72.366 271.058 71.777C272.825 71.095 275.057 70.475 276.359 69.793V68.398C276.359 67.84 276.235 65.298 273.662 65.298C272.67 65.298 271.926 65.732 271.647 66.042C271.647 66.507 271.926 67.282 271.926 67.964C271.926 68.646 271.244 69.328 270.128 69.328C269.105 69.328 268.733 68.491 268.733 67.654C268.733 65.763 271.492 64.275 273.848 64.275C276.917 64.275 279.211 64.833 279.211 68.987C279.211 71.777 279.056 75.094 279.056 76.117C279.056 76.489 279.397 77.636 280.42 77.636C281.226 77.636 281.505 76.458 281.536 75.311H282.528ZM298.556 79H291.24V78.039C291.798 78.008 292.263 77.977 292.697 77.853C293.286 77.667 293.534 77.171 293.534 76.489V69.328C293.534 67.189 292.294 66.011 290.961 66.011C288.698 66.011 287.427 67.499 287.086 68.212V76.334C287.086 77.016 287.365 77.45 287.923 77.698C288.388 77.915 288.853 78.008 289.38 78.039V79H282.064V78.039C282.622 78.008 282.994 77.977 283.428 77.853C284.017 77.667 284.265 77.171 284.265 76.489V67.809C284.203 67.158 283.924 66.507 283.428 66.166C283.056 65.918 282.467 65.794 281.909 65.763V64.833L286.869 64.492L287.086 64.709V66.817H287.148C288.326 65.67 289.504 64.275 292.17 64.275C295.053 64.275 296.386 66.228 296.386 69.173V76.365C296.386 77.047 296.634 77.481 297.192 77.729C297.626 77.915 297.998 78.008 298.556 78.039V79ZM309.929 76.272V67.84C309.588 66.817 308.565 65.36 306.426 65.36C304.07 65.36 302.241 67.84 302.241 71.994C302.241 75.001 303.543 77.853 306.767 77.853C308.255 77.853 309.123 77.14 309.929 76.272ZM315.385 78.721L310.177 79.062L309.96 78.845V77.512L309.836 77.481C309.154 78.194 307.666 79.403 305.713 79.403C302.086 79.403 299.079 76.396 299.079 71.653C299.079 67.313 302.52 64.275 306.178 64.275C308.131 64.275 309.557 64.988 309.929 65.174V59.532C309.867 58.881 309.619 58.075 309.123 57.734C308.534 57.331 307.294 57.176 306.395 57.114V56.215L312.533 55.874L312.75 56.091V75.962C312.75 76.706 313.06 77.14 313.556 77.481C313.928 77.729 314.827 77.76 315.385 77.791V78.721ZM27.904 113.272V104.84C27.563 103.817 26.54 102.36 24.401 102.36C22.045 102.36 20.216 104.84 20.216 108.994C20.216 112.001 21.518 114.853 24.742 114.853C26.23 114.853 27.098 114.14 27.904 113.272ZM33.36 115.721L28.152 116.062L27.935 115.845V114.512L27.811 114.481C27.129 115.194 25.641 116.403 23.688 116.403C20.061 116.403 17.054 113.396 17.054 108.653C17.054 104.313 20.495 101.275 24.153 101.275C26.106 101.275 27.532 101.988 27.904 102.174V96.532C27.842 95.881 27.594 95.075 27.098 94.734C26.509 94.331 25.269 94.176 24.37 94.114V93.215L30.508 92.874L30.725 93.091V112.962C30.725 113.706 31.035 114.14 31.531 114.481C31.903 114.729 32.802 114.76 33.36 114.791V115.721ZM38.856 95.602C38.856 96.687 38.019 97.617 36.903 97.617C35.88 97.617 35.012 96.749 35.012 95.726C35.012 94.672 35.88 93.773 36.903 93.773C38.05 93.773 38.856 94.61 38.856 95.602ZM40.778 116H33.555V115.039C34.113 115.008 34.485 114.977 34.919 114.853C35.508 114.667 35.756 114.171 35.756 113.489V104.809C35.694 104.158 35.415 103.6 34.919 103.259C34.547 103.011 33.648 102.794 33.09 102.763V101.833L38.36 101.492L38.577 101.709V113.303C38.577 113.985 38.856 114.481 39.414 114.698C39.879 114.884 40.22 115.008 40.778 115.039V116ZM49.8924 105.987C49.8924 104.034 49.1794 102.298 47.2264 102.298C45.2424 102.298 44.6844 103.941 44.6844 105.894C44.6844 108.002 45.7074 109.521 47.2574 109.521C49.0864 109.521 49.8924 107.878 49.8924 105.987ZM56.1544 102.794C56.1544 103.693 55.6894 104.313 54.8524 104.313C53.8294 104.313 53.5194 103.724 53.5194 102.453C52.4964 102.453 52.0624 102.67 51.5974 103.011V103.104C52.3414 103.91 52.7754 105.119 52.7754 106.049C52.7754 108.777 50.0784 110.544 47.5364 110.544H45.7384C45.2424 110.73 44.6534 111.133 44.6534 111.877C44.6534 113.427 46.4514 113.365 47.9704 113.427C48.8694 113.458 50.7914 113.582 51.4424 113.613C53.2714 113.706 55.4104 115.194 55.4104 117.86C55.4104 120.743 52.9614 123.006 47.6294 123.006C42.7314 123.006 40.8714 121.518 40.8714 119.131C40.8714 117.364 42.2044 115.845 45.3664 115.752V115.535C44.1574 115.163 42.5144 114.605 42.5144 112.807C42.5144 111.288 43.9094 110.575 44.9324 110.172V109.986C42.9794 109.087 41.7704 107.754 41.7704 105.894C41.7704 103.011 44.2504 101.275 47.3194 101.275C49.4584 101.275 51.1944 102.205 51.5044 102.205C52.6514 101.492 53.3644 101.275 54.6974 101.275C55.4414 101.275 56.1544 101.926 56.1544 102.794ZM52.9304 118.449C52.9304 117.736 52.8064 116.744 51.3494 116.31C50.6674 116.217 49.3344 116.093 46.5444 116.093C44.3434 116.527 43.5064 117.457 43.5064 119.255C43.5064 120.495 44.7154 121.921 48.1564 121.921C51.1634 121.921 52.9304 120.805 52.9304 118.449ZM61.291 95.602C61.291 96.687 60.454 97.617 59.338 97.617C58.315 97.617 57.447 96.749 57.447 95.726C57.447 94.672 58.315 93.773 59.338 93.773C60.485 93.773 61.291 94.61 61.291 95.602ZM63.213 116H55.99V115.039C56.548 115.008 56.92 114.977 57.354 114.853C57.943 114.667 58.191 114.171 58.191 113.489V104.809C58.129 104.158 57.85 103.6 57.354 103.259C56.982 103.011 56.083 102.794 55.525 102.763V101.833L60.795 101.492L61.012 101.709V113.303C61.012 113.985 61.291 114.481 61.849 114.698C62.314 114.884 62.655 115.008 63.213 115.039V116ZM73.3815 112.156C73.1645 114.45 71.8935 116.31 69.4135 116.31C66.8715 116.31 65.6315 114.822 65.6315 112.063V103.135H62.7485V101.74H65.6935V97.245H68.3905V101.74H72.5755V103.135H68.4215V111.66C68.4215 113.427 68.9175 114.512 70.6225 114.512C71.9555 114.512 72.2035 113.334 72.3275 112.156H73.3815ZM81.8028 108.033C78.7028 108.963 76.4398 109.924 76.4398 112.435C76.4398 114.047 77.2458 114.76 78.5788 114.76C80.1908 114.76 80.9348 114.047 81.6788 113.179L81.8028 108.033ZM87.9408 112.311C87.7858 115.225 86.5148 116.31 84.5308 116.31C83.0738 116.31 82.2988 115.659 81.8028 114.233H81.7098C80.5938 115.535 78.8888 116.372 77.0288 116.372C74.8898 116.372 73.4328 115.008 73.4328 112.962C73.4328 110.296 74.9208 109.366 76.4708 108.777C78.2378 108.095 80.4698 107.475 81.7718 106.793V105.398C81.7718 104.84 81.6478 102.298 79.0748 102.298C78.0828 102.298 77.3388 102.732 77.0598 103.042C77.0598 103.507 77.3388 104.282 77.3388 104.964C77.3388 105.646 76.6568 106.328 75.5408 106.328C74.5178 106.328 74.1458 105.491 74.1458 104.654C74.1458 102.763 76.9048 101.275 79.2608 101.275C82.3298 101.275 84.6238 101.833 84.6238 105.987C84.6238 108.777 84.4688 112.094 84.4688 113.117C84.4688 113.489 84.8098 114.636 85.8328 114.636C86.6388 114.636 86.9178 113.458 86.9488 112.311H87.9408ZM94.4523 116H87.2293V115.039C87.7873 115.008 88.1593 114.977 88.5933 114.853C89.1823 114.667 89.4303 114.171 89.4303 113.489V96.439C89.4303 95.726 89.0893 95.013 88.5933 94.672C88.2213 94.424 86.9813 94.176 86.4233 94.145V93.215L92.0343 92.874L92.2513 93.091V113.303C92.2513 113.985 92.5303 114.45 93.0883 114.698C93.5533 114.915 93.8943 115.008 94.4523 115.039V116ZM113.561 108.932C113.561 105.925 112.352 102.887 109.221 102.887C107.733 102.887 106.741 103.569 105.997 104.437V112.962C106.338 113.923 107.392 115.318 109.438 115.318C111.794 115.318 113.561 113.086 113.561 108.932ZM116.723 108.963C116.723 113.303 113.344 116.372 109.686 116.372C107.888 116.372 106.834 115.938 106.121 115.411H105.997V120.185C105.997 120.867 106.307 121.394 106.865 121.611C107.33 121.797 108.446 122.014 109.004 122.045V123.006H100.665V122.045C101.223 122.014 101.936 121.921 102.37 121.797C102.959 121.611 103.176 121.053 103.176 120.371V104.747C103.114 104.096 102.866 103.538 102.37 103.197C101.998 102.949 101.223 102.794 100.665 102.763V101.833L105.749 101.492L105.966 101.678V103.29L106.09 103.321C106.803 102.546 108.322 101.275 110.275 101.275C113.84 101.275 116.723 104.313 116.723 108.963ZM128.917 103.383C128.917 104.53 128.235 105.491 127.181 105.491C126.189 105.491 125.6 105.057 125.6 104.003C125.6 103.724 125.786 103.166 125.817 103.011C124.236 103.011 123.027 104.468 122.655 105.15V113.334C122.655 114.016 122.934 114.481 123.492 114.698C124.019 114.915 124.918 115.008 125.507 115.039V116H117.633V115.039C118.191 115.008 118.563 114.977 118.997 114.853C119.586 114.667 119.834 114.171 119.834 113.489V104.809C119.772 104.158 119.493 103.507 118.997 103.166C118.625 102.918 118.036 102.794 117.478 102.763V101.833L122.438 101.492L122.655 101.709V103.817H122.717C124.05 102.112 125.538 101.337 126.84 101.337C127.987 101.337 128.917 102.205 128.917 103.383ZM143.126 108.684C143.126 112.9 140.522 116.434 135.841 116.434C132.121 116.434 128.835 113.551 128.835 108.901C128.835 104.406 131.718 101.275 136.058 101.275C140.398 101.275 143.126 104.468 143.126 108.684ZM139.995 108.715C139.995 105.553 139.034 102.329 136.027 102.329C132.803 102.329 131.966 105.77 131.966 108.653C131.966 112.249 133.113 115.38 136.027 115.38C138.786 115.38 139.995 112.342 139.995 108.715ZM154.854 113.272V104.84C154.513 103.817 153.49 102.36 151.351 102.36C148.995 102.36 147.166 104.84 147.166 108.994C147.166 112.001 148.468 114.853 151.692 114.853C153.18 114.853 154.048 114.14 154.854 113.272ZM160.31 115.721L155.102 116.062L154.885 115.845V114.512L154.761 114.481C154.079 115.194 152.591 116.403 150.638 116.403C147.011 116.403 144.004 113.396 144.004 108.653C144.004 104.313 147.445 101.275 151.103 101.275C153.056 101.275 154.482 101.988 154.854 102.174V96.532C154.792 95.881 154.544 95.075 154.048 94.734C153.459 94.331 152.219 94.176 151.32 94.114V93.215L157.458 92.874L157.675 93.091V112.962C157.675 113.706 157.985 114.14 158.481 114.481C158.853 114.729 159.752 114.76 160.31 114.791V115.721ZM176.439 115.721L171.572 116.062L171.355 115.845V113.954H171.262C170.084 115.132 168.968 116.372 166.302 116.372C163.419 116.372 162.272 114.233 162.272 111.319V104.747C162.272 103.972 161.962 103.538 161.466 103.197C161.094 102.949 160.474 102.825 159.916 102.794V101.864L164.907 101.492L165.124 101.709V111.536C165.124 113.675 166.24 114.791 167.573 114.791C169.836 114.791 170.921 113.303 171.324 112.652V104.654C171.262 104.003 171.014 103.445 170.518 103.104C170.146 102.856 169.309 102.825 168.503 102.794V101.864L173.928 101.492L174.145 101.709V112.993C174.207 113.644 174.455 114.14 174.951 114.481C175.323 114.729 175.881 114.76 176.439 114.791V115.721ZM189.839 112.683C188.661 114.729 186.429 116.372 183.887 116.372C179.268 116.372 176.974 113.148 176.974 108.777C176.974 104.871 179.733 101.275 184.073 101.275C187.359 101.275 189.033 103.011 189.033 104.933C189.033 106.266 188.475 106.917 187.297 106.917C186.677 106.917 185.561 106.576 185.561 105.367C185.561 104.065 185.995 104.065 185.995 103.476C185.84 102.577 185.158 102.329 184.011 102.329C182.151 102.329 180.105 103.972 180.105 108.653C180.105 112.156 181.841 114.791 184.631 114.791C186.615 114.791 187.762 113.861 188.878 112.063L189.839 112.683ZM199.634 112.156C199.417 114.45 198.146 116.31 195.666 116.31C193.124 116.31 191.884 114.822 191.884 112.063V103.135H189.001V101.74H191.946V97.245H194.643V101.74H198.828V103.135H194.674V111.66C194.674 113.427 195.17 114.512 196.875 114.512C198.208 114.512 198.456 113.334 198.58 112.156H199.634ZM210.039 111.908C210.039 114.729 207.683 116.434 204.769 116.434C203.25 116.434 201.607 115.721 201.08 115.163L200.77 116.155H199.716L199.561 111.133H200.553C200.894 112.683 202.413 115.349 204.893 115.349C207.063 115.349 207.807 114.419 207.807 112.869C207.807 111.195 206.629 110.606 204.211 109.893C202.227 109.304 199.933 108.157 199.933 105.429C199.933 103.073 201.762 101.275 204.645 101.275C205.854 101.275 207.094 101.554 207.869 102.112L208.117 101.244H209.109L209.326 105.739H208.334C208.024 103.941 206.815 102.36 204.614 102.36C203.002 102.36 202.165 103.197 202.165 104.375C202.165 106.111 203.25 106.483 205.761 107.32C208.303 108.157 210.039 109.335 210.039 111.908ZM215.934 114.233C215.934 115.38 215.004 116.279 213.857 116.279C212.71 116.279 211.78 115.38 211.78 114.233C211.78 113.086 212.71 112.156 213.857 112.156C215.004 112.156 215.934 113.086 215.934 114.233Z" fill="black"/>
</g>
<defs>
<clipPath id="clip0_2115_3303">
<rect width="390" height="326" fill="white"/>
</clipPath>
<clipPath id="clip1_2115_3303">
<rect width="390" height="326.923" fill="white" transform="translate(0 -0.460938)"/>
</clipPath>
<clipPath id="clip2_2115_3303">
<rect width="66.076" height="105.722" fill="white" transform="matrix(-0.996127 0.0879236 0.0879236 0.996127 301.496 166.65)"/>
</clipPath>
</defs>
</svg>
