<svg width="1440" height="720" viewBox="0 0 1440 720" fill="none" xmlns="http://www.w3.org/2000/svg">
<rect width="1440" height="720" fill="black"/>
<g clip-path="url(#clip0_2109_453)">
<mask id="mask0_2109_453" style="mask-type:alpha" maskUnits="userSpaceOnUse" x="926" y="119" width="510" height="436">
<path d="M968.639 351.165C976.023 340.016 978.086 327.386 977.597 313.709C977.167 301.686 974.763 288.841 972.261 275.472C971.918 273.638 971.572 271.794 971.23 269.941C965.557 239.209 960.703 205.95 978.644 173.474C990.145 152.655 1005.55 141.995 1023.27 137.297C1041 132.597 1061.04 133.862 1081.82 136.913C1090.62 138.206 1099.55 139.818 1108.49 141.432C1110.1 141.722 1111.71 142.013 1113.32 142.302C1123.87 144.195 1134.4 146.01 1144.71 147.223C1165.32 149.647 1185.06 149.664 1202.32 143.063C1244.08 127.09 1274.59 119.188 1296.22 119.15C1307.04 119.131 1315.63 121.078 1322.31 124.957C1328.98 128.835 1333.75 134.649 1336.91 142.385C1339.28 148.191 1339.19 155.127 1337.87 162.615C1336.58 169.968 1334.11 177.836 1331.65 185.668L1331.52 186.1C1329.01 194.07 1326.55 201.993 1325.38 209.267C1324.21 216.54 1324.34 223.185 1327.04 228.591C1331.47 237.433 1341.13 243.395 1352.9 248.552C1358.75 251.114 1365.13 253.481 1371.65 255.903L1371.79 255.953C1378.36 258.393 1385.09 260.892 1391.59 263.708C1404.58 269.34 1416.65 276.234 1424.73 286.443C1432.8 296.645 1436.91 310.171 1433.99 329.093C1431.37 345.983 1424.77 358.207 1415.54 367.762C1406.32 377.319 1394.47 384.209 1381.37 390.422C1375.2 393.35 1368.75 396.127 1362.16 398.961L1360.96 399.478C1353.96 402.492 1346.82 405.585 1339.72 409.005C1325.51 415.845 1311.42 423.996 1298.86 435.45C1230.12 498.129 1146.54 534.397 1076.8 548.261C1041.93 555.193 1010.52 556.523 986.16 552.757C961.789 548.99 944.506 540.13 937.822 526.719C921.585 494.142 916.585 429.761 968.639 351.165Z" fill="#F4D150" stroke="black" stroke-width="0.257089"/>
</mask>
<g mask="url(#mask0_2109_453)">
<rect x="812.586" y="-11.1504" width="681.028" height="662.26" transform="rotate(-5.89095 812.586 -11.1504)" fill="#4F1AE7"/>
<path d="M1111.37 505.241C1123.29 485.168 1129.87 438.302 1129.52 419.947L1191.71 386.401L1228.39 494.912L1111.37 505.241Z" fill="#FC909F" stroke="black" stroke-width="3.78947"/>
<mask id="mask1_2109_453" style="mask-type:alpha" maskUnits="userSpaceOnUse" x="1111" y="386" width="118" height="120">
<path d="M1111.37 505.241C1123.29 485.168 1129.87 438.302 1129.52 419.947L1191.71 386.401L1228.39 494.912L1111.37 505.241Z" fill="#FFEDEF"/>
</mask>
<g mask="url(#mask1_2109_453)">
<ellipse cx="55.8947" cy="51.1579" rx="55.8947" ry="51.1579" transform="matrix(-0.996127 0.0879236 0.0879236 0.996127 1181.16 333.969)" fill="black"/>
</g>
<g clip-path="url(#clip1_2109_453)">
<path d="M1110.79 495.679C1122.71 475.606 1130.13 438.177 1129.77 419.822L1191.96 386.276L1227.81 485.35L1110.79 495.679Z" fill="#F9C9B6" stroke="black" stroke-width="3.78947"/>
<mask id="mask2_2109_453" style="mask-type:alpha" maskUnits="userSpaceOnUse" x="1111" y="386" width="118" height="120">
<path d="M1111.62 505.116C1123.55 485.043 1130.13 438.177 1129.77 419.822L1191.96 386.276L1228.64 494.787L1111.62 505.116Z" fill="#F9C9B6"/>
</mask>
<g mask="url(#mask2_2109_453)">
<g style="mix-blend-mode:multiply">
<ellipse cx="55.8947" cy="51.1579" rx="55.8947" ry="51.1579" transform="matrix(-0.996127 0.0879236 0.0879236 0.996127 1181.16 333.971)" fill="black"/>
</g>
</g>
<mask id="path-9-inside-1_2109_453" fill="white">
<path fill-rule="evenodd" clip-rule="evenodd" d="M1068.49 339.442C1068.52 339.209 1068.56 338.975 1068.59 338.742C1068.63 338.509 1068.66 338.276 1068.7 338.044L1078.37 272.798C1078.39 272.62 1078.42 272.441 1078.44 272.262C1084.41 232.035 1121.85 204.258 1162.07 210.219C1202.14 216.156 1229.85 253.319 1224.19 293.359L1224.19 293.359L1214.06 361.7L1214.05 361.698C1207.45 401.183 1170.4 428.265 1130.63 422.372C1090.86 416.479 1063.26 379.816 1068.4 340.114L1068.39 340.112L1068.49 339.442Z"/>
</mask>
<path fill-rule="evenodd" clip-rule="evenodd" d="M1068.49 339.442C1068.52 339.209 1068.56 338.975 1068.59 338.742C1068.63 338.509 1068.66 338.276 1068.7 338.044L1078.37 272.798C1078.39 272.62 1078.42 272.441 1078.44 272.262C1084.41 232.035 1121.85 204.258 1162.07 210.219C1202.14 216.156 1229.85 253.319 1224.19 293.359L1224.19 293.359L1214.06 361.7L1214.05 361.698C1207.45 401.183 1170.4 428.265 1130.63 422.372C1090.86 416.479 1063.26 379.816 1068.4 340.114L1068.39 340.112L1068.49 339.442Z" fill="#F9C9B6"/>
<path d="M1068.49 339.442L1072.24 339.962L1072.24 339.979L1072.24 339.997L1068.49 339.442ZM1068.59 338.742L1072.34 339.298L1072.34 339.298L1068.59 338.742ZM1068.7 338.044L1072.45 338.599L1072.44 338.617L1072.44 338.634L1068.7 338.044ZM1078.37 272.798L1082.12 273.327L1082.12 273.341L1082.12 273.354L1078.37 272.798ZM1078.44 272.262L1074.7 271.706L1074.7 271.706L1078.44 272.262ZM1162.07 210.219L1162.63 206.471L1162.63 206.471L1162.07 210.219ZM1224.19 293.359L1223.64 297.108L1219.91 296.559L1220.44 292.828L1224.19 293.359ZM1224.19 293.359L1224.74 289.61L1228.5 290.163L1227.94 293.915L1224.19 293.359ZM1214.06 361.7L1217.81 362.255L1217.26 366.005L1213.51 365.448L1214.06 361.7ZM1214.05 361.698L1210.31 361.073L1210.92 357.402L1214.6 357.949L1214.05 361.698ZM1130.63 422.372L1131.19 418.623L1131.19 418.623L1130.63 422.372ZM1068.4 340.114L1068.95 336.365L1072.64 336.909L1072.16 340.6L1068.4 340.114ZM1068.39 340.112L1067.84 343.861L1064.09 343.307L1064.64 339.557L1068.39 340.112ZM1064.74 338.921C1064.77 338.677 1064.81 338.432 1064.84 338.187L1072.34 339.298C1072.31 339.519 1072.27 339.741 1072.24 339.962L1064.74 338.921ZM1064.84 338.187C1064.88 337.942 1064.92 337.697 1064.95 337.453L1072.44 338.634C1072.41 338.855 1072.37 339.076 1072.34 339.298L1064.84 338.187ZM1082.12 273.354L1072.45 338.599L1064.95 337.488L1074.62 272.243L1082.12 273.354ZM1074.61 272.27C1074.64 272.082 1074.67 271.894 1074.7 271.706L1082.19 272.817C1082.17 272.987 1082.14 273.157 1082.12 273.327L1074.61 272.27ZM1074.7 271.706C1080.96 229.41 1120.33 200.203 1162.63 206.471L1161.52 213.968C1123.36 208.313 1087.85 234.661 1082.19 272.817L1074.7 271.706ZM1162.63 206.471C1204.75 212.713 1233.9 251.789 1227.94 293.89L1220.44 292.828C1225.81 254.85 1199.52 219.599 1161.52 213.968L1162.63 206.471ZM1223.64 297.109L1223.64 297.108L1224.74 289.61L1224.74 289.61L1223.64 297.109ZM1210.31 361.144L1220.44 292.804L1227.94 293.915L1217.81 362.255L1210.31 361.144ZM1214.6 357.949L1214.62 357.952L1213.51 365.448L1213.49 365.446L1214.6 357.949ZM1217.79 362.322C1210.85 403.842 1171.89 432.317 1130.08 426.12L1131.19 418.623C1168.91 424.213 1204.05 398.525 1210.31 361.073L1217.79 362.322ZM1130.08 426.12C1088.26 419.924 1059.24 381.375 1064.64 339.628L1072.16 340.6C1067.29 378.258 1093.47 413.033 1131.19 418.623L1130.08 426.12ZM1068.95 336.364L1068.95 336.365L1067.85 343.863L1067.84 343.861L1068.95 336.364ZM1072.24 339.997L1072.14 340.668L1064.64 339.557L1064.74 338.886L1072.24 339.997Z" fill="black" mask="url(#path-9-inside-1_2109_453)"/>
</g>
<path d="M1159.83 356.299C1158.88 372.55 1132.66 382.473 1106.5 366.237" stroke="black" stroke-width="3.78947"/>
<path d="M1115.2 276.275C1109.63 274.231 1096.84 273.045 1090.26 284.658" stroke="black" stroke-width="3.78947" stroke-linecap="round"/>
<path d="M1188.48 293.874C1186.04 288.468 1177.92 278.519 1165.02 281.965" stroke="black" stroke-width="3.78947" stroke-linecap="round"/>
<path d="M1142.4 194.245L1142.33 194.259L1142.25 194.268C1117.15 197.229 1098.47 208.972 1085.7 222.417C1073.47 235.299 1066.76 249.648 1064.99 259.18C1069.02 261.028 1075.75 262.331 1084.26 263.135C1093.53 264.013 1104.61 264.274 1115.87 264.163C1138.4 263.941 1161.53 262.231 1172.3 261.044L1178.02 260.413L1173.79 264.318C1171.6 266.348 1168.57 267.892 1165.33 269.077C1162.07 270.269 1158.46 271.143 1154.98 271.765C1151.4 272.406 1147.89 272.793 1144.97 272.976C1155.64 279.796 1168.88 284.596 1181.81 287.88C1196.74 291.672 1211.08 293.399 1220.22 293.925L1222.27 294.043L1221.99 296.081C1220.03 309.976 1216.32 334.29 1213.84 350.599C1212.74 357.834 1211.87 363.493 1211.51 365.967C1210.87 370.355 1208.19 376.765 1205.01 382.736C1202.08 388.241 1198.57 393.66 1195.5 397.075L1205.55 426.444L1233.45 423.982C1224.52 412.679 1221.64 398.963 1221.94 384.119C1222.27 368.051 1226.35 350.439 1230.73 332.779C1231.16 331.04 1231.59 329.301 1232.03 327.562C1236.02 311.557 1240 295.595 1241.59 280.494C1243.35 263.767 1242.13 248.366 1234.91 235.367C1223.22 214.322 1204.8 203.127 1186.88 197.644C1168.92 192.148 1151.6 192.436 1142.4 194.245Z" fill="white" stroke="black" stroke-width="3.78947"/>
<ellipse cx="8.52632" cy="9.47368" rx="8.52632" ry="9.47368" transform="matrix(-0.999543 -0.0302296 -0.0302296 0.999543 1175.5 296.748)" fill="black"/>
<ellipse cx="8.52632" cy="9.47368" rx="8.52632" ry="9.47368" transform="matrix(-0.999769 -0.0214923 -0.0214923 0.999769 1114.16 292.564)" fill="black"/>
<path d="M1133.41 309.817C1132.72 323.063 1125.56 333.128 1125.56 333.128C1125.56 333.128 1128.58 338.976 1138.14 337.572" stroke="black" stroke-width="3.78947"/>
<path d="M1202.42 316.162L1202.32 315.105L1203.17 314.474C1206.51 312 1210.69 310.439 1215.12 310.048C1220.44 309.578 1225.57 310.788 1229.41 313.822C1233.3 316.891 1235.67 321.67 1235.7 327.886C1235.73 333.943 1234.11 338.546 1231.02 341.782C1231.38 342.701 1231.55 343.71 1231.51 344.792C1231.42 347.908 1230.05 350.268 1227.77 351.85C1225.58 353.359 1222.69 354.079 1219.55 354.356C1214.38 354.812 1209.6 352.431 1205.82 349.016L1205.27 348.518L1205.21 347.777L1202.42 316.162Z" stroke="black" stroke-width="3.78947"/>
<path fill-rule="evenodd" clip-rule="evenodd" d="M1198.08 331.49C1197.96 330.887 1197.88 330.272 1197.82 329.646C1196.97 320.004 1205.38 312.812 1215.28 311.938C1225.18 311.064 1233.75 316.489 1233.81 327.897C1233.84 334.245 1231.95 338.591 1228.67 341.396C1229.31 342.313 1229.65 343.426 1229.61 344.735C1229.46 349.772 1225.36 351.941 1219.38 352.469C1208.9 353.395 1199.43 340.854 1198.08 331.49Z" fill="#F9C9B6"/>
<path d="M1211.82 320.326C1215.44 318.262 1223.67 316.617 1227.59 326.542" stroke="black" stroke-width="3.78947"/>
<path d="M1221.77 319.922C1219.88 321.832 1216.45 327.524 1217.87 335.007" stroke="black" stroke-width="3.78947"/>
<path d="M1014.71 573.444L1327.14 545.868C1321.09 520.621 1303.46 498.648 1282.55 482.206C1261.05 465.307 1236.34 454.453 1217.78 451.91C1202.36 449.798 1184.61 449.634 1163.95 451.457C1155.03 452.244 1148.2 454.218 1141.77 456.596C1139.39 457.477 1137 458.439 1134.56 459.424C1130.52 461.053 1126.32 462.743 1121.75 464.225L1121.63 464.267L1121.49 464.29C1077.34 471.883 1029.23 507.427 1014.71 573.444Z" fill="#F4D150" stroke="black" stroke-width="3.78947"/>
<path d="M1228.82 452.999L1218.55 435.268C1218.31 434.844 1217.78 434.679 1217.33 434.882C1182.66 450.711 1150.02 452.692 1119.1 446.956C1118.71 446.884 1118.32 447.06 1118.12 447.399L1106.55 466.539C1106.24 467.065 1106.48 467.746 1107.07 467.919C1139.89 477.573 1199.21 470.204 1228.47 454.288C1228.94 454.035 1229.09 453.456 1228.82 452.999Z" fill="white" stroke="black" stroke-width="3.78947"/>
</g>
<ellipse cx="1287.38" cy="598.875" rx="131.625" ry="119.625" fill="#D9D9D9"/>
<path d="M833.781 222C751.483 -99.5713 1159.65 -302.462 1402.75 -49.8316L833.781 222Z" fill="#FFFF00"/>
<path d="M779.813 120.946C639.664 -223.525 84.1698 -1.71577 84.1698 270.649L72 447L918 412.514L779.813 120.946Z" fill="#FFFF00"/>
<path d="M0 667.125L261.375 444L731.25 758.25L72.375 856.125L0 667.125Z" fill="#FFFF00"/>
<ellipse cx="773.25" cy="582.375" rx="171.75" ry="161.625" fill="#4F1AE7"/>
</g>
<path d="M198.648 204H178.808V201.888C179.96 201.824 182.584 201.632 183.416 201.312C184.952 200.736 185.4 199.584 185.4 198.176V182.56H163.32V197.856C163.32 199.264 163.832 200.352 165.304 200.992C166.072 201.312 168.76 201.824 169.912 201.888V204H150.072V201.888C151.224 201.824 153.72 201.632 154.552 201.312C156.088 200.736 156.536 199.584 156.536 198.176V166.624C156.536 165.216 156.088 164.128 154.552 163.488C153.464 163.04 151.224 162.464 150.072 162.4V160.288H169.912V162.4C168.76 162.464 166.456 162.784 165.304 163.168C163.704 163.68 163.32 164.896 163.32 166.304V179.872H185.4V166.624C185.4 165.216 184.888 164.128 183.416 163.488C182.328 163.04 179.96 162.464 178.808 162.4V160.288H198.648V162.4C197.496 162.464 195.32 162.784 194.168 163.168C192.568 163.68 192.184 164.896 192.184 166.304V197.856C192.184 199.264 192.696 200.288 194.168 200.992C194.936 201.376 197.496 201.824 198.648 201.888V204ZM211.749 161.888C211.749 164.128 210.021 166.048 207.717 166.048C205.605 166.048 203.813 164.256 203.813 162.144C203.813 159.968 205.605 158.112 207.717 158.112C210.085 158.112 211.749 159.84 211.749 161.888ZM215.717 204H200.805V202.016C201.957 201.952 202.725 201.888 203.621 201.632C204.837 201.248 205.349 200.224 205.349 198.816V180.896C205.221 179.552 204.645 178.4 203.621 177.696C202.853 177.184 200.997 176.736 199.845 176.672V174.752L210.725 174.048L211.173 174.496V198.432C211.173 199.84 211.749 200.864 212.901 201.312C213.861 201.696 214.565 201.952 215.717 202.016V204ZM227.238 202.848C227.238 208.736 221.286 213.344 218.278 215.008L216.934 212.896C220.518 210.784 223.654 208.224 224.038 203.872H222.31C218.982 203.872 217.894 201.824 217.894 199.84C217.894 198.048 219.366 196.064 221.862 196.064C225.638 196.064 227.238 198.816 227.238 202.848ZM263.989 204H243.893V201.888C245.045 201.824 247.733 201.632 248.565 201.312C250.101 200.736 250.549 199.648 250.549 198.24V166.56C250.549 165.152 250.165 164.128 248.565 163.488C247.413 163.04 245.045 162.464 243.893 162.4V160.288H263.989V162.4C262.837 162.464 260.469 162.784 259.317 163.168C257.717 163.68 257.333 164.832 257.333 166.24V197.92C257.333 199.328 257.845 200.352 259.317 200.992C260.085 201.312 262.837 201.824 263.989 201.888V204ZM275.586 163.232C275.586 168.736 270.21 172.128 267.394 173.728L266.434 171.872C269.826 169.888 272.258 168.288 272.642 164.192H271.042C267.906 164.192 266.882 162.272 266.882 160.416C266.882 158.688 268.29 156.832 270.594 156.832C274.178 156.832 275.586 159.392 275.586 163.232ZM289.604 202.016V204H274.628V202.016C275.78 201.952 276.548 201.888 277.444 201.632C278.66 201.248 279.172 200.224 279.172 198.816V180.768C279.044 179.424 278.468 178.336 277.444 177.632C276.676 177.12 275.332 176.736 274.18 176.672V174.752L284.484 174.048L284.932 174.496V178.912H285.125C287.621 176.48 289.924 173.6 295.429 173.6C299.461 173.6 302.405 176.032 303.685 179.104C306.309 176.608 308.805 173.6 314.309 173.6C320.261 173.6 322.757 177.952 322.757 184.032V198.496C322.757 199.904 323.269 200.864 324.421 201.376C325.317 201.76 326.277 201.952 327.429 202.016V204H312.389V202.016C313.541 201.952 314.245 201.888 315.141 201.632C316.357 201.248 316.868 200.224 316.868 198.816V183.968C316.868 179.552 314.437 177.184 311.685 177.184C307.013 177.184 304.645 180.32 303.877 181.664V198.496C303.877 199.904 304.389 200.864 305.541 201.376C306.437 201.76 307.205 201.952 308.357 202.016V204H293.637V202.016C294.788 201.952 295.365 201.888 296.26 201.632C297.477 201.248 297.989 200.224 297.989 198.816V183.968C297.989 179.552 295.557 177.184 292.805 177.184C288.132 177.184 285.764 180.384 284.997 181.728V198.432C284.997 199.84 285.573 200.8 286.724 201.312C287.684 201.76 288.452 201.952 289.604 202.016ZM377.166 171.296H374.798C374.094 168.48 370.702 163.296 367.95 162.912C366.414 162.72 364.686 162.656 362.638 162.656H355.278V180.32H360.526C363.79 180.32 365.39 179.104 366.222 178.336C367.118 177.504 367.95 175.136 368.206 172.768H370.574V190.752H368.206C368.078 188.896 367.118 185.632 366.222 184.736C365.39 183.904 363.534 182.752 360.526 182.752H355.278V197.856C355.278 199.264 355.79 200.352 357.262 200.992C358.03 201.312 360.974 201.824 362.126 201.888V204H342.03V201.888C343.182 201.824 345.678 201.632 346.51 201.312C348.046 200.736 348.494 199.584 348.494 198.176V166.624C348.494 165.216 348.11 164.128 346.51 163.488C345.294 162.976 343.182 162.464 342.03 162.4V160.288H377.166V171.296ZM392.286 204H377.374V202.016C378.526 201.952 379.294 201.888 380.19 201.632C381.406 201.248 381.918 200.224 381.918 198.816V163.616C381.918 162.144 381.214 160.672 380.19 159.968C379.422 159.456 376.862 158.944 375.71 158.88V156.96L387.294 156.256L387.742 156.704V198.432C387.742 199.84 388.318 200.8 389.47 201.312C390.43 201.76 391.134 201.952 392.286 202.016V204ZM422.953 188.896C422.953 197.6 417.577 204.896 407.913 204.896C400.233 204.896 393.449 198.944 393.449 189.344C393.449 180.064 399.401 173.6 408.361 173.6C417.321 173.6 422.953 180.192 422.953 188.896ZM416.489 188.96C416.489 182.432 414.505 175.776 408.297 175.776C401.641 175.776 399.913 182.88 399.913 188.832C399.913 196.256 402.281 202.72 408.297 202.72C413.993 202.72 416.489 196.448 416.489 188.96ZM448.062 177.952C448.062 180.32 446.654 182.304 444.478 182.304C442.43 182.304 441.214 181.408 441.214 179.232C441.214 178.656 441.598 177.504 441.662 177.184C438.398 177.184 435.902 180.192 435.134 181.6V198.496C435.134 199.904 435.71 200.864 436.862 201.312C437.95 201.76 439.806 201.952 441.022 202.016V204H424.766V202.016C425.918 201.952 426.686 201.888 427.582 201.632C428.798 201.248 429.31 200.224 429.31 198.816V180.896C429.182 179.552 428.606 178.208 427.582 177.504C426.814 176.992 425.598 176.736 424.446 176.672V174.752L434.686 174.048L435.134 174.496V178.848H435.262C438.014 175.328 441.086 173.728 443.774 173.728C446.142 173.728 448.062 175.52 448.062 177.952ZM474.083 197.024C471.779 201.568 467.299 204.768 461.795 204.768C451.939 204.768 447.331 197.6 447.331 188.96C447.331 181.088 452.515 173.6 461.155 173.6C470.115 173.6 473.379 179.488 473.379 186.144V187.808H453.603C453.603 196.064 456.483 201.504 463.587 201.504C467.939 201.504 469.923 199.456 472.099 195.808L474.083 197.024ZM467.235 185.44C467.235 180.832 466.083 175.776 461.091 175.776C456.995 175.776 453.795 179.552 453.603 185.568L467.235 185.44ZM485.135 200.352C485.135 202.72 483.215 204.576 480.847 204.576C478.479 204.576 476.559 202.72 476.559 200.352C476.559 197.984 478.479 196.064 480.847 196.064C483.215 196.064 485.135 197.984 485.135 200.352ZM522.142 204H502.046V201.888C503.198 201.824 505.886 201.632 506.718 201.312C508.254 200.736 508.702 199.648 508.702 198.24V166.56C508.702 165.152 508.318 164.128 506.718 163.488C505.566 163.04 503.198 162.464 502.046 162.4V160.288H522.142V162.4C520.99 162.464 518.622 162.784 517.47 163.168C515.87 163.68 515.486 164.832 515.486 166.24V197.92C515.486 199.328 515.998 200.352 517.47 200.992C518.238 201.312 520.99 201.824 522.142 201.888V204ZM552.57 202.016V204H537.594V202.016C538.746 201.952 539.514 201.888 540.41 201.632C541.626 201.248 542.138 200.224 542.138 198.816V180.768C542.01 179.424 541.434 178.336 540.41 177.632C539.642 177.12 538.298 176.736 537.146 176.672V174.752L547.45 174.048L547.898 174.496V178.912H548.09C550.586 176.48 552.89 173.6 558.394 173.6C562.426 173.6 565.37 176.032 566.65 179.104C569.274 176.608 571.77 173.6 577.274 173.6C583.226 173.6 585.722 177.952 585.722 184.032V198.496C585.722 199.904 586.234 200.864 587.386 201.376C588.282 201.76 589.242 201.952 590.394 202.016V204H575.354V202.016C576.506 201.952 577.21 201.888 578.106 201.632C579.322 201.248 579.834 200.224 579.834 198.816V183.968C579.834 179.552 577.402 177.184 574.65 177.184C569.978 177.184 567.61 180.32 566.842 181.664V198.496C566.842 199.904 567.354 200.864 568.506 201.376C569.402 201.76 570.17 201.952 571.322 202.016V204H556.602V202.016C557.754 201.952 558.33 201.888 559.226 201.632C560.442 201.248 560.954 200.224 560.954 198.816V183.968C560.954 179.552 558.522 177.184 555.77 177.184C551.098 177.184 548.73 180.384 547.962 181.728V198.432C547.962 199.84 548.538 200.8 549.69 201.312C550.65 201.76 551.418 201.952 552.57 202.016ZM608.884 187.552C602.484 189.472 597.812 191.456 597.812 196.64C597.812 199.968 599.476 201.44 602.228 201.44C605.556 201.44 607.092 199.968 608.628 198.176L608.884 187.552ZM621.556 196.384C621.236 202.4 618.612 204.64 614.516 204.64C611.508 204.64 609.908 203.296 608.884 200.352H608.692C606.388 203.04 602.868 204.768 599.028 204.768C594.612 204.768 591.604 201.952 591.604 197.728C591.604 192.224 594.676 190.304 597.876 189.088C601.524 187.68 606.132 186.4 608.82 184.992V182.112C608.82 180.96 608.564 175.712 603.252 175.712C601.204 175.712 599.668 176.608 599.092 177.248C599.092 178.208 599.668 179.808 599.668 181.216C599.668 182.624 598.26 184.032 595.956 184.032C593.844 184.032 593.076 182.304 593.076 180.576C593.076 176.672 598.772 173.6 603.636 173.6C609.972 173.6 614.708 174.752 614.708 183.328C614.708 189.088 614.388 195.936 614.388 198.048C614.388 198.816 615.092 201.184 617.204 201.184C618.868 201.184 619.444 198.752 619.508 196.384H621.556ZM653.495 204H643.319C641.847 199.072 637.303 190.048 633.143 190.048C631.479 190.048 630.903 190.56 630.391 191.008V198.496C630.391 199.904 630.967 200.864 632.119 201.312C633.079 201.696 633.975 201.952 635.127 202.016V204H620.023V202.016C621.175 201.952 621.943 201.888 622.839 201.632C624.055 201.248 624.567 200.224 624.567 198.816V163.488C624.567 161.952 623.863 160.48 622.839 159.776C621.943 159.136 619.703 158.944 618.551 158.88V156.96L629.943 156.256L630.391 156.704V189.024C633.271 186.336 637.431 182.368 640.119 179.488C640.439 179.168 640.951 178.464 640.951 178.08C640.951 176.992 638.647 176.544 636.983 176.352V174.432H650.423V176.288C647.031 177.248 644.151 178.848 642.679 180.128C640.951 181.6 638.903 183.392 636.791 185.504C643.063 188.448 645.367 194.08 648.247 199.584C648.759 200.544 649.911 201.184 650.999 201.632C652.087 202.08 653.239 202.08 653.495 202.08V204ZM678.853 197.024C676.549 201.568 672.069 204.768 666.565 204.768C656.709 204.768 652.101 197.6 652.101 188.96C652.101 181.088 657.285 173.6 665.925 173.6C674.885 173.6 678.149 179.488 678.149 186.144V187.808H658.373C658.373 196.064 661.253 201.504 668.357 201.504C672.709 201.504 674.693 199.456 676.869 195.808L678.853 197.024ZM672.005 185.44C672.005 180.832 670.853 175.776 665.861 175.776C661.765 175.776 658.565 179.552 658.373 185.568L672.005 185.44ZM171.576 275.368V257.96C170.872 255.848 168.76 252.84 164.344 252.84C159.48 252.84 155.704 257.96 155.704 266.536C155.704 272.744 158.392 278.632 165.048 278.632C168.12 278.632 169.912 277.16 171.576 275.368ZM182.84 280.424L172.088 281.128L171.64 280.68V277.928L171.384 277.864C169.976 279.336 166.904 281.832 162.872 281.832C155.384 281.832 149.176 275.624 149.176 265.832C149.176 256.872 156.28 250.6 163.832 250.6C167.864 250.6 170.808 252.072 171.576 252.456V240.808C171.448 239.464 170.936 237.8 169.912 237.096C168.696 236.264 166.136 235.944 164.28 235.816V233.96L176.952 233.256L177.4 233.704V274.728C177.4 276.264 178.04 277.16 179.064 277.864C179.832 278.376 181.688 278.44 182.84 278.504V280.424ZM209.931 274.024C207.626 278.568 203.146 281.768 197.642 281.768C187.786 281.768 183.178 274.6 183.178 265.96C183.178 258.088 188.362 250.6 197.002 250.6C205.962 250.6 209.226 256.488 209.226 263.144V264.808H189.45C189.45 273.064 192.33 278.504 199.434 278.504C203.786 278.504 205.771 276.456 207.947 272.808L209.931 274.024ZM203.083 262.44C203.083 257.832 201.931 252.776 196.938 252.776C192.842 252.776 189.642 256.552 189.45 262.568L203.083 262.44ZM232.502 272.552C232.502 278.376 227.638 281.896 221.622 281.896C218.486 281.896 215.094 280.424 214.006 279.272L213.366 281.32H211.19L210.87 270.952H212.918C213.622 274.152 216.758 279.656 221.878 279.656C226.358 279.656 227.894 277.736 227.894 274.536C227.894 271.08 225.462 269.864 220.47 268.392C216.374 267.176 211.638 264.808 211.638 259.176C211.638 254.312 215.414 250.6 221.366 250.6C223.862 250.6 226.422 251.176 228.022 252.328L228.534 250.536H230.582L231.03 259.816H228.982C228.342 256.104 225.846 252.84 221.302 252.84C217.974 252.84 216.246 254.568 216.246 257C216.246 260.584 218.486 261.352 223.67 263.08C228.918 264.808 232.502 267.24 232.502 272.552ZM245.504 238.888C245.504 241.128 243.776 243.048 241.472 243.048C239.36 243.048 237.568 241.256 237.568 239.144C237.568 236.968 239.36 235.112 241.472 235.112C243.84 235.112 245.504 236.84 245.504 238.888ZM249.472 281H234.56V279.016C235.712 278.952 236.48 278.888 237.376 278.632C238.592 278.248 239.104 277.224 239.104 275.816V257.896C238.976 256.552 238.4 255.4 237.376 254.696C236.608 254.184 234.752 253.736 233.6 253.672V251.752L244.48 251.048L244.928 251.496V275.432C244.928 276.84 245.504 277.864 246.656 278.312C247.616 278.696 248.32 278.952 249.472 279.016V281ZM268.289 260.328C268.289 256.296 266.817 252.712 262.785 252.712C258.689 252.712 257.537 256.104 257.537 260.136C257.537 264.488 259.649 267.624 262.849 267.624C266.625 267.624 268.289 264.232 268.289 260.328ZM281.217 253.736C281.217 255.592 280.257 256.872 278.529 256.872C276.417 256.872 275.777 255.656 275.777 253.032C273.665 253.032 272.769 253.48 271.809 254.184V254.376C273.345 256.04 274.241 258.536 274.241 260.456C274.241 266.088 268.673 269.736 263.425 269.736H259.713C258.689 270.12 257.473 270.952 257.473 272.488C257.473 275.688 261.185 275.56 264.321 275.688C266.177 275.752 270.145 276.008 271.489 276.072C275.265 276.264 279.681 279.336 279.681 284.84C279.681 290.792 274.625 295.464 263.617 295.464C253.505 295.464 249.665 292.392 249.665 287.464C249.665 283.816 252.417 280.68 258.945 280.488V280.04C256.449 279.272 253.057 278.12 253.057 274.408C253.057 271.272 255.937 269.8 258.049 268.968V268.584C254.017 266.728 251.521 263.976 251.521 260.136C251.521 254.184 256.641 250.6 262.977 250.6C267.393 250.6 270.977 252.52 271.617 252.52C273.985 251.048 275.457 250.6 278.209 250.6C279.745 250.6 281.217 251.944 281.217 253.736ZM274.561 286.056C274.561 284.584 274.305 282.536 271.297 281.64C269.889 281.448 267.137 281.192 261.377 281.192C256.833 282.088 255.105 284.008 255.105 287.72C255.105 290.28 257.601 293.224 264.705 293.224C270.913 293.224 274.561 290.92 274.561 286.056ZM314.861 281H299.757V279.016C300.909 278.952 301.869 278.888 302.765 278.632C303.981 278.248 304.493 277.224 304.493 275.816V261.032C304.493 256.616 301.933 254.184 299.181 254.184C294.509 254.184 291.885 257.256 291.181 258.728V275.496C291.181 276.904 291.757 277.8 292.909 278.312C293.869 278.76 294.829 278.952 295.917 279.016V281H280.813V279.016C281.965 278.952 282.733 278.888 283.629 278.632C284.845 278.248 285.357 277.224 285.357 275.816V257.896C285.229 256.552 284.653 255.208 283.629 254.504C282.861 253.992 281.645 253.736 280.493 253.672V251.752L290.733 251.048L291.181 251.496V255.848H291.309C293.741 253.48 296.173 250.6 301.677 250.6C307.629 250.6 310.381 254.632 310.381 260.712V275.56C310.381 276.968 310.893 277.864 312.045 278.376C312.941 278.76 313.709 278.952 314.861 279.016V281ZM337.637 272.552C337.637 278.376 332.773 281.896 326.757 281.896C323.621 281.896 320.229 280.424 319.141 279.272L318.501 281.32H316.325L316.005 270.952H318.053C318.757 274.152 321.893 279.656 327.013 279.656C331.493 279.656 333.029 277.736 333.029 274.536C333.029 271.08 330.597 269.864 325.605 268.392C321.509 267.176 316.773 264.808 316.773 259.176C316.773 254.312 320.549 250.6 326.501 250.6C328.997 250.6 331.557 251.176 333.157 252.328L333.669 250.536H335.717L336.165 259.816H334.117C333.477 256.104 330.981 252.84 326.437 252.84C323.109 252.84 321.381 254.568 321.381 257C321.381 260.584 323.621 261.352 328.805 263.08C334.053 264.808 337.637 267.24 337.637 272.552ZM377.598 238.824C377.598 240.04 376.382 242.152 374.142 242.152C372.67 242.152 370.43 241.448 370.43 239.272C370.43 238.312 370.814 236.712 370.814 235.752C370.43 235.368 369.79 235.304 369.278 235.304C365.246 235.304 363.262 238.504 362.942 248.296C362.942 249.256 362.878 250.472 362.878 251.56H370.814V254.376H362.878V275.496C362.878 276.904 363.454 277.864 364.606 278.312C365.566 278.696 367.614 278.952 368.766 279.016V281H352.51V279.016C353.662 278.952 354.43 278.888 355.326 278.632C356.542 278.248 357.054 277.224 357.054 275.816V254.376H350.654V251.56H357.054V250.216C357.054 244.904 358.27 240.424 361.406 237.096C364.03 234.28 367.55 233.192 370.814 233.192C375.614 233.192 377.598 236.072 377.598 238.824ZM400.014 265.896C400.014 274.6 394.638 281.896 384.974 281.896C377.294 281.896 370.51 275.944 370.51 266.344C370.51 257.064 376.462 250.6 385.422 250.6C394.382 250.6 400.014 257.192 400.014 265.896ZM393.55 265.96C393.55 259.432 391.566 252.776 385.358 252.776C378.702 252.776 376.974 259.88 376.974 265.832C376.974 273.256 379.342 279.72 385.358 279.72C391.054 279.72 393.55 273.448 393.55 265.96ZM425.122 254.952C425.122 257.32 423.714 259.304 421.538 259.304C419.49 259.304 418.274 258.408 418.274 256.232C418.274 255.656 418.658 254.504 418.722 254.184C415.458 254.184 412.962 257.192 412.194 258.6V275.496C412.194 276.904 412.77 277.864 413.922 278.312C415.01 278.76 416.866 278.952 418.082 279.016V281H401.826V279.016C402.978 278.952 403.746 278.888 404.642 278.632C405.858 278.248 406.37 277.224 406.37 275.816V257.896C406.242 256.552 405.666 255.208 404.642 254.504C403.874 253.992 402.658 253.736 401.506 253.672V251.752L411.746 251.048L412.194 251.496V255.848H412.322C415.074 252.328 418.146 250.728 420.834 250.728C423.202 250.728 425.122 252.52 425.122 254.952ZM454.663 274.664C453.767 276.84 453.063 278.632 452.167 281.448H450.055C445.511 269.992 443.655 265.384 439.943 256.616C439.239 254.888 437.063 253.608 435.271 253.416V251.432H449.095V253.544C447.623 253.608 445.703 253.864 445.703 254.888C445.703 254.952 445.831 255.464 446.151 256.232C447.431 259.496 450.119 266.28 452.807 273.064H453.063C455.047 267.944 456.967 263.08 458.823 257.96C458.631 257.576 458.439 257.128 457.927 256.168C456.839 254.184 455.495 253.608 453.703 253.416V251.432H466.951V253.48C465.479 253.544 463.623 253.672 463.623 254.76C463.623 254.824 463.751 255.464 464.071 256.232C465.287 259.496 468.039 266.792 470.471 273.128H470.727C473.287 266.472 474.759 262.44 476.551 257.192C476.743 256.616 476.871 255.912 476.871 255.528C476.871 253.992 473.735 253.352 472.775 253.352V251.432H484.295V253.352C482.503 253.544 480.007 255.016 479.175 257.192C476.359 264.232 475.143 267.368 472.263 274.664C471.367 276.904 470.727 278.632 469.831 281.448H467.847C465.031 273.704 462.471 267.112 460.039 260.84C458.183 265 456.519 269.992 454.663 274.664ZM509.523 274.024C507.219 278.568 502.739 281.768 497.235 281.768C487.379 281.768 482.771 274.6 482.771 265.96C482.771 258.088 487.955 250.6 496.595 250.6C505.555 250.6 508.819 256.488 508.819 263.144V264.808H489.043C489.043 273.064 491.923 278.504 499.027 278.504C503.379 278.504 505.363 276.456 507.539 272.808L509.523 274.024ZM502.675 262.44C502.675 257.832 501.523 252.776 496.531 252.776C492.435 252.776 489.235 256.552 489.043 262.568L502.675 262.44ZM535.039 266.408C535.039 260.2 532.543 253.928 526.079 253.928C523.007 253.928 520.959 255.144 519.423 256.872V274.216C520.127 276.2 522.175 279.656 526.527 279.656C531.391 279.656 535.039 274.984 535.039 266.408ZM541.567 266.344C541.567 275.304 534.591 281.896 527.039 281.896C522.815 281.896 519.487 280.168 517.567 279.08L515.199 282.664L513.343 282.216C513.535 279.656 513.599 274.984 513.599 270.376V240.424C513.599 239.08 512.895 237.416 511.871 236.776C511.103 236.264 508.799 235.944 507.647 235.88V233.96L518.975 233.256L519.423 233.704V254.504L519.615 254.568C521.087 252.968 524.223 250.6 528.255 250.6C535.615 250.6 541.567 256.744 541.567 266.344ZM565.097 272.552C565.097 278.376 560.233 281.896 554.217 281.896C551.081 281.896 547.689 280.424 546.601 279.272L545.961 281.32H543.785L543.465 270.952H545.513C546.217 274.152 549.353 279.656 554.473 279.656C558.953 279.656 560.489 277.736 560.489 274.536C560.489 271.08 558.057 269.864 553.065 268.392C548.969 267.176 544.233 264.808 544.233 259.176C544.233 254.312 548.009 250.6 553.961 250.6C556.457 250.6 559.017 251.176 560.617 252.328L561.129 250.536H563.177L563.625 259.816H561.577C560.937 256.104 558.441 252.84 553.897 252.84C550.569 252.84 548.841 254.568 548.841 257C548.841 260.584 551.081 261.352 556.265 263.08C561.513 264.808 565.097 267.24 565.097 272.552ZM578.099 238.888C578.099 241.128 576.371 243.048 574.067 243.048C571.955 243.048 570.163 241.256 570.163 239.144C570.163 236.968 571.955 235.112 574.067 235.112C576.435 235.112 578.099 236.84 578.099 238.888ZM582.067 281H567.155V279.016C568.307 278.952 569.075 278.888 569.971 278.632C571.187 278.248 571.699 277.224 571.699 275.816V257.896C571.571 256.552 570.995 255.4 569.971 254.696C569.203 254.184 567.347 253.736 566.195 253.672V251.752L577.075 251.048L577.523 251.496V275.432C577.523 276.84 578.099 277.864 579.251 278.312C580.211 278.696 580.915 278.952 582.067 279.016V281ZM603.06 273.064C602.612 277.8 599.988 281.64 594.868 281.64C589.62 281.64 587.06 278.568 587.06 272.872V254.44H581.108V251.56H587.188V242.28H592.756V251.56H601.396V254.44H592.82V272.04C592.82 275.688 593.844 277.928 597.364 277.928C600.116 277.928 600.628 275.496 600.884 273.064H603.06ZM629.598 274.024C627.294 278.568 622.814 281.768 617.31 281.768C607.454 281.768 602.846 274.6 602.846 265.96C602.846 258.088 608.03 250.6 616.67 250.6C625.63 250.6 628.894 256.488 628.894 263.144V264.808H609.118C609.118 273.064 611.998 278.504 619.102 278.504C623.454 278.504 625.438 276.456 627.614 272.808L629.598 274.024ZM622.75 262.44C622.75 257.832 621.598 252.776 616.606 252.776C612.51 252.776 609.31 256.552 609.118 262.568L622.75 262.44ZM652.17 272.552C652.17 278.376 647.306 281.896 641.29 281.896C638.154 281.896 634.762 280.424 633.674 279.272L633.034 281.32H630.858L630.538 270.952H632.586C633.29 274.152 636.426 279.656 641.546 279.656C646.026 279.656 647.562 277.736 647.562 274.536C647.562 271.08 645.13 269.864 640.138 268.392C636.042 267.176 631.306 264.808 631.306 259.176C631.306 254.312 635.082 250.6 641.034 250.6C643.53 250.6 646.09 251.176 647.69 252.328L648.202 250.536H650.25L650.698 259.816H648.65C648.01 256.104 645.514 252.84 640.97 252.84C637.642 252.84 635.914 254.568 635.914 257C635.914 260.584 638.154 261.352 643.338 263.08C648.586 264.808 652.17 267.24 652.17 272.552ZM684.578 264.552C678.178 266.472 673.506 268.456 673.506 273.64C673.506 276.968 675.17 278.44 677.922 278.44C681.25 278.44 682.786 276.968 684.322 275.176L684.578 264.552ZM697.25 273.384C696.93 279.4 694.306 281.64 690.21 281.64C687.202 281.64 685.602 280.296 684.578 277.352H684.386C682.082 280.04 678.562 281.768 674.722 281.768C670.306 281.768 667.298 278.952 667.298 274.728C667.298 269.224 670.37 267.304 673.57 266.088C677.218 264.68 681.826 263.4 684.514 261.992V259.112C684.514 257.96 684.258 252.712 678.946 252.712C676.898 252.712 675.362 253.608 674.786 254.248C674.786 255.208 675.362 256.808 675.362 258.216C675.362 259.624 673.954 261.032 671.65 261.032C669.538 261.032 668.77 259.304 668.77 257.576C668.77 253.672 674.466 250.6 679.33 250.6C685.666 250.6 690.402 251.752 690.402 260.328C690.402 266.088 690.082 272.936 690.082 275.048C690.082 275.816 690.786 278.184 692.898 278.184C694.562 278.184 695.138 275.752 695.202 273.384H697.25ZM730.341 281H715.237V279.016C716.389 278.952 717.349 278.888 718.245 278.632C719.461 278.248 719.973 277.224 719.973 275.816V261.032C719.973 256.616 717.413 254.184 714.661 254.184C709.989 254.184 707.365 257.256 706.661 258.728V275.496C706.661 276.904 707.237 277.8 708.389 278.312C709.349 278.76 710.309 278.952 711.397 279.016V281H696.293V279.016C697.445 278.952 698.213 278.888 699.109 278.632C700.325 278.248 700.837 277.224 700.837 275.816V257.896C700.709 256.552 700.133 255.208 699.109 254.504C698.341 253.992 697.125 253.736 695.973 253.672V251.752L706.213 251.048L706.661 251.496V255.848H706.789C709.221 253.48 711.653 250.6 717.157 250.6C723.109 250.6 725.861 254.632 725.861 260.712V275.56C725.861 276.968 726.373 277.864 727.525 278.376C728.421 278.76 729.189 278.952 730.341 279.016V281ZM753.821 275.368V257.96C753.117 255.848 751.005 252.84 746.589 252.84C741.725 252.84 737.949 257.96 737.949 266.536C737.949 272.744 740.637 278.632 747.293 278.632C750.365 278.632 752.157 277.16 753.821 275.368ZM765.085 280.424L754.333 281.128L753.885 280.68V277.928L753.629 277.864C752.221 279.336 749.149 281.832 745.117 281.832C737.629 281.832 731.421 275.624 731.421 265.832C731.421 256.872 738.525 250.6 746.077 250.6C750.109 250.6 753.053 252.072 753.821 252.456V240.808C753.693 239.464 753.181 237.8 752.157 237.096C750.941 236.264 748.381 235.944 746.525 235.816V233.96L759.197 233.256L759.645 233.704V274.728C759.645 276.264 760.285 277.16 761.309 277.864C762.077 278.376 763.933 278.44 765.085 278.504V280.424ZM171.576 352.368V334.96C170.872 332.848 168.76 329.84 164.344 329.84C159.48 329.84 155.704 334.96 155.704 343.536C155.704 349.744 158.392 355.632 165.048 355.632C168.12 355.632 169.912 354.16 171.576 352.368ZM182.84 357.424L172.088 358.128L171.64 357.68V354.928L171.384 354.864C169.976 356.336 166.904 358.832 162.872 358.832C155.384 358.832 149.176 352.624 149.176 342.832C149.176 333.872 156.28 327.6 163.832 327.6C167.864 327.6 170.808 329.072 171.576 329.456V317.808C171.448 316.464 170.936 314.8 169.912 314.096C168.696 313.264 166.136 312.944 164.28 312.816V310.96L176.952 310.256L177.4 310.704V351.728C177.4 353.264 178.04 354.16 179.064 354.864C179.832 355.376 181.688 355.44 182.84 355.504V357.424ZM194.186 315.888C194.186 318.128 192.458 320.048 190.154 320.048C188.042 320.048 186.25 318.256 186.25 316.144C186.25 313.968 188.042 312.112 190.154 312.112C192.522 312.112 194.186 313.84 194.186 315.888ZM198.154 358H183.242V356.016C184.394 355.952 185.162 355.888 186.058 355.632C187.274 355.248 187.786 354.224 187.786 352.816V334.896C187.658 333.552 187.082 332.4 186.058 331.696C185.29 331.184 183.434 330.736 182.282 330.672V328.752L193.162 328.048L193.61 328.496V352.432C193.61 353.84 194.186 354.864 195.338 355.312C196.298 355.696 197.002 355.952 198.154 356.016V358ZM216.972 337.328C216.972 333.296 215.5 329.712 211.468 329.712C207.372 329.712 206.22 333.104 206.22 337.136C206.22 341.488 208.332 344.624 211.532 344.624C215.308 344.624 216.972 341.232 216.972 337.328ZM229.9 330.736C229.9 332.592 228.94 333.872 227.212 333.872C225.1 333.872 224.46 332.656 224.46 330.032C222.348 330.032 221.452 330.48 220.492 331.184V331.376C222.028 333.04 222.924 335.536 222.924 337.456C222.924 343.088 217.356 346.736 212.108 346.736H208.396C207.372 347.12 206.156 347.952 206.156 349.488C206.156 352.688 209.868 352.56 213.004 352.688C214.86 352.752 218.828 353.008 220.172 353.072C223.948 353.264 228.364 356.336 228.364 361.84C228.364 367.792 223.308 372.464 212.3 372.464C202.188 372.464 198.348 369.392 198.348 364.464C198.348 360.816 201.1 357.68 207.628 357.488V357.04C205.132 356.272 201.74 355.12 201.74 351.408C201.74 348.272 204.62 346.8 206.732 345.968V345.584C202.7 343.728 200.204 340.976 200.204 337.136C200.204 331.184 205.324 327.6 211.66 327.6C216.076 327.6 219.66 329.52 220.3 329.52C222.668 328.048 224.14 327.6 226.892 327.6C228.428 327.6 229.9 328.944 229.9 330.736ZM223.244 363.056C223.244 361.584 222.988 359.536 219.98 358.64C218.572 358.448 215.82 358.192 210.06 358.192C205.516 359.088 203.788 361.008 203.788 364.72C203.788 367.28 206.284 370.224 213.388 370.224C219.596 370.224 223.244 367.92 223.244 363.056ZM240.504 315.888C240.504 318.128 238.776 320.048 236.472 320.048C234.36 320.048 232.568 318.256 232.568 316.144C232.568 313.968 234.36 312.112 236.472 312.112C238.84 312.112 240.504 313.84 240.504 315.888ZM244.472 358H229.56V356.016C230.712 355.952 231.48 355.888 232.376 355.632C233.592 355.248 234.104 354.224 234.104 352.816V334.896C233.976 333.552 233.4 332.4 232.376 331.696C231.608 331.184 229.752 330.736 228.6 330.672V328.752L239.48 328.048L239.928 328.496V352.432C239.928 353.84 240.504 354.864 241.656 355.312C242.616 355.696 243.32 355.952 244.472 356.016V358ZM265.465 350.064C265.017 354.8 262.393 358.64 257.273 358.64C252.025 358.64 249.465 355.568 249.465 349.872V331.44H243.513V328.56H249.593V319.28H255.161V328.56H263.801V331.44H255.225V349.04C255.225 352.688 256.249 354.928 259.769 354.928C262.521 354.928 263.033 352.496 263.289 350.064H265.465ZM282.851 341.552C276.451 343.472 271.779 345.456 271.779 350.64C271.779 353.968 273.443 355.44 276.195 355.44C279.523 355.44 281.059 353.968 282.595 352.176L282.851 341.552ZM295.523 350.384C295.203 356.4 292.579 358.64 288.483 358.64C285.475 358.64 283.875 357.296 282.851 354.352H282.659C280.355 357.04 276.835 358.768 272.995 358.768C268.579 358.768 265.571 355.952 265.571 351.728C265.571 346.224 268.643 344.304 271.843 343.088C275.491 341.68 280.099 340.4 282.787 338.992V336.112C282.787 334.96 282.531 329.712 277.219 329.712C275.171 329.712 273.635 330.608 273.059 331.248C273.059 332.208 273.635 333.808 273.635 335.216C273.635 336.624 272.227 338.032 269.923 338.032C267.811 338.032 267.043 336.304 267.043 334.576C267.043 330.672 272.739 327.6 277.603 327.6C283.939 327.6 288.675 328.752 288.675 337.328C288.675 343.088 288.355 349.936 288.355 352.048C288.355 352.816 289.059 355.184 291.171 355.184C292.835 355.184 293.411 352.752 293.475 350.384H295.523ZM308.966 358H294.054V356.016C295.206 355.952 295.974 355.888 296.87 355.632C298.086 355.248 298.598 354.224 298.598 352.816V317.616C298.598 316.144 297.894 314.672 296.87 313.968C296.102 313.456 293.542 312.944 292.39 312.88V310.96L303.974 310.256L304.422 310.704V352.432C304.422 353.84 304.998 354.8 306.15 355.312C307.11 355.76 307.814 355.952 308.966 356.016V358ZM348.417 343.408C348.417 337.2 345.921 330.928 339.457 330.928C336.385 330.928 334.337 332.336 332.801 334.128V351.728C333.505 353.712 335.681 356.592 339.905 356.592C344.769 356.592 348.417 351.984 348.417 343.408ZM354.945 343.472C354.945 352.432 347.969 358.768 340.417 358.768C336.705 358.768 334.529 357.872 333.057 356.784H332.801V366.64C332.801 368.048 333.441 369.136 334.593 369.584C335.553 369.968 337.857 370.416 339.009 370.48V372.464H321.793V370.48C322.945 370.416 324.417 370.224 325.313 369.968C326.529 369.584 326.977 368.432 326.977 367.024V334.768C326.849 333.424 326.337 332.272 325.313 331.568C324.545 331.056 322.945 330.736 321.793 330.672V328.752L332.289 328.048L332.737 328.432V331.76L332.993 331.824C334.465 330.224 337.601 327.6 341.633 327.6C348.993 327.6 354.945 333.872 354.945 343.472ZM380.12 331.952C380.12 334.32 378.712 336.304 376.536 336.304C374.488 336.304 373.272 335.408 373.272 333.232C373.272 332.656 373.656 331.504 373.72 331.184C370.456 331.184 367.96 334.192 367.192 335.6V352.496C367.192 353.904 367.768 354.864 368.92 355.312C370.008 355.76 371.864 355.952 373.08 356.016V358H356.824V356.016C357.976 355.952 358.744 355.888 359.64 355.632C360.856 355.248 361.368 354.224 361.368 352.816V334.896C361.24 333.552 360.664 332.208 359.64 331.504C358.872 330.992 357.656 330.736 356.504 330.672V328.752L366.744 328.048L367.192 328.496V332.848H367.32C370.072 329.328 373.144 327.728 375.832 327.728C378.2 327.728 380.12 329.52 380.12 331.952ZM409.453 342.896C409.453 351.6 404.077 358.896 394.413 358.896C386.733 358.896 379.949 352.944 379.949 343.344C379.949 334.064 385.901 327.6 394.861 327.6C403.821 327.6 409.453 334.192 409.453 342.896ZM402.989 342.96C402.989 336.432 401.005 329.776 394.797 329.776C388.141 329.776 386.413 336.88 386.413 342.832C386.413 350.256 388.781 356.72 394.797 356.72C400.493 356.72 402.989 350.448 402.989 342.96ZM433.666 352.368V334.96C432.962 332.848 430.85 329.84 426.434 329.84C421.57 329.84 417.794 334.96 417.794 343.536C417.794 349.744 420.482 355.632 427.138 355.632C430.21 355.632 432.002 354.16 433.666 352.368ZM444.93 357.424L434.178 358.128L433.73 357.68V354.928L433.474 354.864C432.066 356.336 428.994 358.832 424.962 358.832C417.474 358.832 411.266 352.624 411.266 342.832C411.266 333.872 418.37 327.6 425.922 327.6C429.954 327.6 432.898 329.072 433.666 329.456V317.808C433.538 316.464 433.026 314.8 432.002 314.096C430.786 313.264 428.226 312.944 426.37 312.816V310.96L439.042 310.256L439.49 310.704V351.728C439.49 353.264 440.13 354.16 441.154 354.864C441.922 355.376 443.778 355.44 444.93 355.504V357.424ZM478.229 357.424L468.181 358.128L467.733 357.68V353.776H467.541C465.108 356.208 462.805 358.768 457.3 358.768C451.348 358.768 448.98 354.352 448.98 348.336V334.768C448.98 333.168 448.34 332.272 447.316 331.568C446.548 331.056 445.268 330.8 444.116 330.736V328.816L454.42 328.048L454.868 328.496V348.784C454.868 353.2 457.172 355.504 459.924 355.504C464.597 355.504 466.837 352.432 467.668 351.088V334.576C467.541 333.232 467.028 332.08 466.004 331.376C465.236 330.864 463.508 330.8 461.844 330.736V328.816L473.045 328.048L473.493 328.496V351.792C473.621 353.136 474.132 354.16 475.157 354.864C475.924 355.376 477.076 355.44 478.229 355.504V357.424ZM505.894 351.152C503.462 355.376 498.854 358.768 493.606 358.768C484.07 358.768 479.334 352.112 479.334 343.088C479.334 335.024 485.03 327.6 493.99 327.6C500.774 327.6 504.23 331.184 504.23 335.152C504.23 337.904 503.078 339.248 500.646 339.248C499.366 339.248 497.062 338.544 497.062 336.048C497.062 333.36 497.958 333.36 497.958 332.144C497.638 330.288 496.23 329.776 493.862 329.776C490.022 329.776 485.798 333.168 485.798 342.832C485.798 350.064 489.382 355.504 495.142 355.504C499.238 355.504 501.606 353.584 503.91 349.872L505.894 351.152ZM526.115 350.064C525.667 354.8 523.043 358.64 517.923 358.64C512.675 358.64 510.115 355.568 510.115 349.872V331.44H504.163V328.56H510.243V319.28H515.811V328.56H524.451V331.44H515.875V349.04C515.875 352.688 516.899 354.928 520.419 354.928C523.171 354.928 523.683 352.496 523.939 350.064H526.115ZM547.597 349.552C547.597 355.376 542.733 358.896 536.717 358.896C533.581 358.896 530.189 357.424 529.101 356.272L528.461 358.32H526.285L525.965 347.952H528.013C528.717 351.152 531.853 356.656 536.973 356.656C541.453 356.656 542.989 354.736 542.989 351.536C542.989 348.08 540.557 346.864 535.565 345.392C531.469 344.176 526.733 341.808 526.733 336.176C526.733 331.312 530.509 327.6 536.461 327.6C538.957 327.6 541.517 328.176 543.117 329.328L543.629 327.536H545.677L546.125 336.816H544.077C543.437 333.104 540.941 329.84 536.397 329.84C533.069 329.84 531.341 331.568 531.341 334C531.341 337.584 533.581 338.352 538.765 340.08C544.013 341.808 547.597 344.24 547.597 349.552ZM559.767 354.352C559.767 356.72 557.847 358.576 555.479 358.576C553.111 358.576 551.191 356.72 551.191 354.352C551.191 351.984 553.111 350.064 555.479 350.064C557.847 350.064 559.767 351.984 559.767 354.352Z" fill="black"/>
<defs>
<clipPath id="clip0_2109_453">
<rect width="1440" height="720" fill="white"/>
</clipPath>
<clipPath id="clip1_2109_453">
<rect width="189.474" height="303.158" fill="white" transform="matrix(-0.996127 0.0879236 0.0879236 0.996127 1229.51 181.338)"/>
</clipPath>
</defs>
</svg>
